<svg width="262" height="74" viewBox="0 0 262 74" fill="none" xmlns="http://www.w3.org/2000/svg">
<rect width="262" height="74" rx="5" fill="#5B63A9" fill-opacity="0.1"/>
<path d="M48 23.5C45.5145 23.5 43.5 21.4855 43.5 19C43.5 16.5145 45.5145 14.5 48 14.5C50.4855 14.5 52.5 16.5145 52.5 19C52.5 21.4855 50.4855 23.5 48 23.5Z" stroke="#41477A" stroke-linecap="round" stroke-linejoin="round"/>
<path d="M48.0001 21.5V19H47.5001" stroke="#41477A" stroke-linecap="round" stroke-linejoin="round"/>
<path d="M47.8744 17C47.8054 17 47.7494 17.056 47.7499 17.125C47.7499 17.194 47.8059 17.25 47.8749 17.25C47.9439 17.25 47.9999 17.194 47.9999 17.125C47.9999 17.056 47.9439 17 47.8744 17Z" stroke="#41477A" stroke-linecap="round" stroke-linejoin="round"/>
<path d="M66.184 16.848L63.376 16.848L63.376 18.672C63.4987 18.5013 63.68 18.3627 63.92 18.256C64.16 18.144 64.4187 18.088 64.696 18.088C65.1387 18.088 65.4987 18.1813 65.776 18.368C66.0533 18.5493 66.2507 18.7867 66.368 19.08C66.4907 19.368 66.552 19.6747 66.552 20C66.552 20.384 66.48 20.728 66.336 21.032C66.192 21.336 65.9707 21.576 65.672 21.752C65.3787 21.928 65.0133 22.016 64.576 22.016C64.016 22.016 63.5627 21.872 63.216 21.584C62.8693 21.296 62.6587 20.912 62.584 20.432L63.296 20.432C63.3653 20.736 63.512 20.9733 63.736 21.144C63.96 21.3147 64.2427 21.4 64.584 21.4C65.0053 21.4 65.3227 21.2747 65.536 21.024C65.7493 20.768 65.856 20.432 65.856 20.016C65.856 19.6 65.7493 19.28 65.536 19.056C65.3227 18.8267 65.008 18.712 64.592 18.712C64.3093 18.712 64.0613 18.7813 63.848 18.92C63.64 19.0533 63.488 19.2373 63.392 19.472L62.704 19.472L62.704 16.208L66.184 16.208L66.184 16.848ZM70.6603 18.216L70.6603 20.8C70.6603 21.0133 70.7056 21.1653 70.7963 21.256C70.8869 21.3413 71.0443 21.384 71.2682 21.384L71.8043 21.384L71.8043 22L71.1483 22C70.7429 22 70.4389 21.9067 70.2362 21.72C70.0336 21.5333 69.9322 21.2267 69.9322 20.8L69.9322 18.216L69.3642 18.216L69.3642 17.616L69.9322 17.616L69.9323 16.512L70.6603 16.512L70.6603 17.616L71.8043 17.616L71.8043 18.216L70.6603 18.216ZM76.6863 19.64C76.6863 19.7787 76.6783 19.9253 76.6623 20.08L73.1583 20.08C73.185 20.512 73.3316 20.8507 73.5983 21.096C73.8703 21.336 74.1983 21.456 74.5823 21.456C74.897 21.456 75.1583 21.384 75.3663 21.24C75.5796 21.0907 75.729 20.8933 75.8143 20.648L76.5983 20.648C76.481 21.0693 76.2463 21.4133 75.8943 21.68C75.5423 21.9413 75.105 22.072 74.5823 22.072C74.1663 22.072 73.793 21.9787 73.4623 21.792C73.137 21.6053 72.881 21.3413 72.6943 21C72.5076 20.6533 72.4143 20.2533 72.4143 19.8C72.4143 19.3467 72.505 18.9493 72.6863 18.608C72.8676 18.2667 73.121 18.0053 73.4463 17.824C73.777 17.6373 74.1556 17.544 74.5823 17.544C74.9983 17.544 75.3663 17.6347 75.6863 17.816C76.0063 17.9973 76.2516 18.248 76.4223 18.568C76.5983 18.8827 76.6863 19.24 76.6863 19.64ZM75.9343 19.488C75.9343 19.2107 75.873 18.9733 75.7503 18.776C75.6276 18.5733 75.4596 18.4213 75.2463 18.32C75.0383 18.2133 74.8063 18.16 74.5503 18.16C74.1823 18.16 73.8676 18.2773 73.6063 18.512C73.3503 18.7467 73.2036 19.072 73.1663 19.488L75.9343 19.488ZM77.3752 19.792C77.3752 19.344 77.4659 18.952 77.6473 18.616C77.8286 18.2747 78.0766 18.0107 78.3912 17.824C78.7113 17.6373 79.0659 17.544 79.4553 17.544C79.8393 17.544 80.1726 17.6267 80.4553 17.792C80.7379 17.9573 80.9486 18.1653 81.0873 18.416L81.0873 17.616L81.8233 17.616L81.8233 22L81.0873 22L81.0873 21.184C80.9433 21.44 80.7273 21.6533 80.4393 21.824C80.1566 21.9893 79.8259 22.072 79.4473 22.072C79.0579 22.072 78.7059 21.976 78.3912 21.784C78.0766 21.592 77.8286 21.3227 77.6473 20.976C77.4659 20.6293 77.3752 20.2347 77.3752 19.792ZM81.0873 19.8C81.0873 19.4693 81.0206 19.1813 80.8873 18.936C80.7539 18.6907 80.5726 18.504 80.3433 18.376C80.1193 18.2427 79.8713 18.176 79.5993 18.176C79.3273 18.176 79.0793 18.24 78.8553 18.368C78.6313 18.496 78.4526 18.6827 78.3193 18.928C78.1859 19.1733 78.1193 19.4613 78.1193 19.792C78.1193 20.128 78.1859 20.4213 78.3193 20.672C78.4526 20.9173 78.6313 21.1067 78.8553 21.24C79.0793 21.368 79.3273 21.432 79.5993 21.432C79.8713 21.432 80.1193 21.368 80.3433 21.24C80.5726 21.1067 80.7539 20.9173 80.8873 20.672C81.0206 20.4213 81.0873 20.1307 81.0873 19.8ZM88.3255 17.536C88.6668 17.536 88.9708 17.608 89.2375 17.752C89.5042 17.8907 89.7148 18.1013 89.8695 18.384C90.0242 18.6667 90.1015 19.0107 90.1015 19.416L90.1015 22L89.3815 22L89.3815 19.52C89.3815 19.0827 89.2722 18.7493 89.0535 18.52C88.8402 18.2853 88.5495 18.168 88.1815 18.168C87.8028 18.168 87.5015 18.2907 87.2775 18.536C87.0535 18.776 86.9415 19.1253 86.9415 19.584L86.9415 22L86.2215 22L86.2215 19.52C86.2215 19.0827 86.1122 18.7493 85.8935 18.52C85.6802 18.2853 85.3895 18.168 85.0215 18.168C84.6428 18.168 84.3415 18.2907 84.1175 18.536C83.8935 18.776 83.7815 19.1253 83.7815 19.584L83.7815 22L83.0535 22L83.0535 17.616L83.7815 17.616L83.7815 18.248C83.9255 18.0187 84.1175 17.8427 84.3575 17.72C84.6028 17.5973 84.8722 17.536 85.1655 17.536C85.5335 17.536 85.8588 17.6187 86.1415 17.784C86.4242 17.9493 86.6348 18.192 86.7735 18.512C86.8962 18.2027 87.0988 17.9627 87.3815 17.792C87.6642 17.6213 87.9788 17.536 88.3255 17.536ZM98.7005 17.536C99.0418 17.536 99.3458 17.608 99.6125 17.752C99.8792 17.8907 100.09 18.1013 100.245 18.384C100.399 18.6667 100.477 19.0107 100.477 19.416L100.477 22L99.7565 22L99.7565 19.52C99.7565 19.0827 99.6472 18.7493 99.4285 18.52C99.2152 18.2853 98.9245 18.168 98.5565 18.168C98.1778 18.168 97.8765 18.2907 97.6525 18.536C97.4285 18.776 97.3165 19.1253 97.3165 19.584L97.3165 22L96.5965 22L96.5965 19.52C96.5965 19.0827 96.4872 18.7493 96.2685 18.52C96.0552 18.2853 95.7645 18.168 95.3965 18.168C95.0178 18.168 94.7165 18.2907 94.4925 18.536C94.2685 18.776 94.1565 19.1253 94.1565 19.584L94.1565 22L93.4285 22L93.4285 17.616L94.1565 17.616L94.1565 18.248C94.3005 18.0187 94.4925 17.8427 94.7325 17.72C94.9778 17.5973 95.2472 17.536 95.5405 17.536C95.9085 17.536 96.2338 17.6187 96.5165 17.784C96.7992 17.9493 97.0098 18.192 97.1485 18.512C97.2712 18.2027 97.4738 17.9627 97.7565 17.792C98.0392 17.6213 98.3538 17.536 98.7005 17.536ZM105.671 19.64C105.671 19.7787 105.663 19.9253 105.647 20.08L102.143 20.08C102.169 20.512 102.316 20.8507 102.583 21.096C102.855 21.336 103.183 21.456 103.567 21.456C103.881 21.456 104.143 21.384 104.351 21.24C104.564 21.0907 104.713 20.8933 104.799 20.648L105.583 20.648C105.465 21.0693 105.231 21.4133 104.879 21.68C104.527 21.9413 104.089 22.072 103.567 22.072C103.151 22.072 102.777 21.9787 102.447 21.792C102.121 21.6053 101.865 21.3413 101.679 21C101.492 20.6533 101.399 20.2533 101.399 19.8C101.399 19.3467 101.489 18.9493 101.671 18.608C101.852 18.2667 102.105 18.0053 102.431 17.824C102.761 17.6373 103.14 17.544 103.567 17.544C103.983 17.544 104.351 17.6347 104.671 17.816C104.991 17.9973 105.236 18.248 105.407 18.568C105.583 18.8827 105.671 19.24 105.671 19.64ZM104.919 19.488C104.919 19.2107 104.857 18.9733 104.735 18.776C104.612 18.5733 104.444 18.4213 104.231 18.32C104.023 18.2133 103.791 18.16 103.535 18.16C103.167 18.16 102.852 18.2773 102.591 18.512C102.335 18.7467 102.188 19.072 102.151 19.488L104.919 19.488ZM111.904 17.536C112.245 17.536 112.549 17.608 112.816 17.752C113.082 17.8907 113.293 18.1013 113.448 18.384C113.602 18.6667 113.68 19.0107 113.68 19.416L113.68 22L112.96 22L112.96 19.52C112.96 19.0827 112.85 18.7493 112.632 18.52C112.418 18.2853 112.128 18.168 111.76 18.168C111.381 18.168 111.08 18.2907 110.856 18.536C110.632 18.776 110.52 19.1253 110.52 19.584L110.52 22L109.8 22L109.8 19.52C109.8 19.0827 109.69 18.7493 109.472 18.52C109.258 18.2853 108.968 18.168 108.6 18.168C108.221 18.168 107.92 18.2907 107.696 18.536C107.472 18.776 107.36 19.1253 107.36 19.584L107.36 22L106.632 22L106.632 17.616L107.36 17.616L107.36 18.248C107.504 18.0187 107.696 17.8427 107.936 17.72C108.181 17.5973 108.45 17.536 108.744 17.536C109.112 17.536 109.437 17.6187 109.72 17.784C110.002 17.9493 110.213 18.192 110.352 18.512C110.474 18.2027 110.677 17.9627 110.96 17.792C111.242 17.6213 111.557 17.536 111.904 17.536ZM115.602 18.432C115.751 18.1707 115.97 17.9573 116.258 17.792C116.546 17.6267 116.874 17.544 117.242 17.544C117.636 17.544 117.991 17.6373 118.306 17.824C118.62 18.0107 118.868 18.2747 119.05 18.616C119.231 18.952 119.322 19.344 119.322 19.792C119.322 20.2347 119.231 20.6293 119.05 20.976C118.868 21.3227 118.618 21.592 118.298 21.784C117.983 21.976 117.631 22.072 117.242 22.072C116.863 22.072 116.53 21.9893 116.242 21.824C115.959 21.6587 115.746 21.448 115.602 21.192L115.602 22L114.874 22L114.874 16.08L115.602 16.08L115.602 18.432ZM118.578 19.792C118.578 19.4613 118.511 19.1733 118.378 18.928C118.244 18.6827 118.063 18.496 117.834 18.368C117.61 18.24 117.362 18.176 117.09 18.176C116.823 18.176 116.575 18.2427 116.346 18.376C116.122 18.504 115.94 18.6933 115.802 18.944C115.668 19.1893 115.602 19.4747 115.602 19.8C115.602 20.1307 115.668 20.4213 115.802 20.672C115.94 20.9173 116.122 21.1067 116.346 21.24C116.575 21.368 116.823 21.432 117.09 21.432C117.362 21.432 117.61 21.368 117.834 21.24C118.063 21.1067 118.244 20.9173 118.378 20.672C118.511 20.4213 118.578 20.128 118.578 19.792ZM124.28 19.64C124.28 19.7787 124.272 19.9253 124.256 20.08L120.752 20.08C120.779 20.512 120.925 20.8507 121.192 21.096C121.464 21.336 121.792 21.456 122.176 21.456C122.491 21.456 122.752 21.384 122.96 21.24C123.173 21.0907 123.323 20.8933 123.408 20.648L124.192 20.648C124.075 21.0693 123.84 21.4133 123.488 21.68C123.136 21.9413 122.699 22.072 122.176 22.072C121.76 22.072 121.387 21.9787 121.056 21.792C120.731 21.6053 120.475 21.3413 120.288 21C120.101 20.6533 120.008 20.2533 120.008 19.8C120.008 19.3467 120.099 18.9493 120.28 18.608C120.461 18.2667 120.715 18.0053 121.04 17.824C121.371 17.6373 121.749 17.544 122.176 17.544C122.592 17.544 122.96 17.6347 123.28 17.816C123.6 17.9973 123.845 18.248 124.016 18.568C124.192 18.8827 124.28 19.24 124.28 19.64ZM123.528 19.488C123.528 19.2107 123.467 18.9733 123.344 18.776C123.221 18.5733 123.053 18.4213 122.84 18.32C122.632 18.2133 122.4 18.16 122.144 18.16C121.776 18.16 121.461 18.2773 121.2 18.512C120.944 18.7467 120.797 19.072 120.76 19.488L123.528 19.488ZM125.969 18.328C126.097 18.0773 126.278 17.8827 126.513 17.744C126.753 17.6053 127.044 17.536 127.385 17.536L127.385 18.288L127.193 18.288C126.377 18.288 125.969 18.7307 125.969 19.616L125.969 22L125.241 22L125.241 17.616L125.969 17.616L125.969 18.328ZM129.777 22.072C129.441 22.072 129.14 22.016 128.873 21.904C128.607 21.7867 128.396 21.6267 128.241 21.424C128.087 21.216 128.001 20.9787 127.985 20.712L128.737 20.712C128.759 20.9307 128.86 21.1093 129.041 21.248C129.228 21.3867 129.471 21.456 129.769 21.456C130.047 21.456 130.265 21.3947 130.425 21.272C130.585 21.1493 130.665 20.9947 130.665 20.808C130.665 20.616 130.58 20.4747 130.409 20.384C130.239 20.288 129.975 20.1947 129.617 20.104C129.292 20.0187 129.025 19.9333 128.817 19.848C128.615 19.7573 128.439 19.6267 128.289 19.456C128.145 19.28 128.073 19.0507 128.073 18.768C128.073 18.544 128.14 18.3387 128.273 18.152C128.407 17.9653 128.596 17.8187 128.841 17.712C129.087 17.6 129.367 17.544 129.681 17.544C130.167 17.544 130.559 17.6667 130.857 17.912C131.156 18.1573 131.316 18.4933 131.337 18.92L130.609 18.92C130.593 18.6907 130.5 18.5067 130.329 18.368C130.164 18.2293 129.94 18.16 129.657 18.16C129.396 18.16 129.188 18.216 129.033 18.328C128.879 18.44 128.801 18.5867 128.801 18.768C128.801 18.912 128.847 19.032 128.937 19.128C129.033 19.2187 129.151 19.2933 129.289 19.352C129.433 19.4053 129.631 19.4667 129.881 19.536C130.196 19.6213 130.452 19.7067 130.649 19.792C130.847 19.872 131.015 19.9947 131.153 20.16C131.297 20.3253 131.372 20.5413 131.377 20.808C131.377 21.048 131.311 21.264 131.177 21.456C131.044 21.648 130.855 21.8 130.609 21.912C130.369 22.0187 130.092 22.072 129.777 22.072ZM136.41 23.488C135.898 22.9867 135.498 22.3493 135.21 21.576C134.927 20.8027 134.786 19.968 134.786 19.072C134.786 18.1547 134.935 17.2987 135.234 16.504C135.538 15.704 135.97 15.0453 136.53 14.528L137.29 14.528L137.29 14.6C136.693 15.16 136.242 15.8347 135.938 16.624C135.639 17.408 135.49 18.224 135.49 19.072C135.49 19.8987 135.631 20.688 135.914 21.44C136.202 22.192 136.621 22.8507 137.17 23.416L137.17 23.488L136.41 23.488ZM141.771 20.472C141.771 20.728 141.707 20.9733 141.579 21.208C141.451 21.4373 141.261 21.6293 141.011 21.784C140.765 21.9387 140.469 22.0267 140.123 22.048L140.123 22.696L139.691 22.696L139.691 22.048C139.205 22.0053 138.811 21.8507 138.507 21.584C138.203 21.312 138.048 20.968 138.043 20.552L138.819 20.552C138.84 20.776 138.923 20.9707 139.067 21.136C139.216 21.3013 139.424 21.4053 139.691 21.448L139.691 19.448C139.333 19.3573 139.045 19.264 138.827 19.168C138.608 19.072 138.421 18.9227 138.267 18.72C138.112 18.5173 138.035 18.2453 138.035 17.904C138.035 17.472 138.184 17.1147 138.483 16.832C138.787 16.5493 139.189 16.392 139.691 16.36L139.691 15.696L140.123 15.696L140.123 16.36C140.576 16.3973 140.941 16.544 141.219 16.8C141.496 17.0507 141.656 17.3787 141.699 17.784L140.923 17.784C140.896 17.5973 140.813 17.4293 140.675 17.28C140.536 17.1253 140.352 17.024 140.123 16.976L140.123 18.928C140.475 19.0187 140.76 19.112 140.979 19.208C141.203 19.2987 141.389 19.4453 141.539 19.648C141.693 19.8507 141.771 20.1253 141.771 20.472ZM138.779 17.864C138.779 18.1253 138.856 18.3253 139.011 18.464C139.165 18.6027 139.392 18.7173 139.691 18.808L139.691 16.96C139.413 16.9867 139.192 17.0773 139.027 17.232C138.861 17.3813 138.779 17.592 138.779 17.864ZM140.123 21.456C140.411 21.424 140.635 21.32 140.795 21.144C140.96 20.968 141.043 20.7573 141.043 20.512C141.043 20.2507 140.963 20.0507 140.803 19.912C140.643 19.768 140.416 19.6533 140.123 19.568L140.123 21.456ZM144.083 18.992C143.785 18.8747 143.555 18.704 143.395 18.48C143.235 18.256 143.155 17.984 143.155 17.664C143.155 17.376 143.227 17.1173 143.371 16.888C143.515 16.6533 143.729 16.4693 144.011 16.336C144.299 16.1973 144.646 16.128 145.051 16.128C145.457 16.128 145.801 16.1973 146.083 16.336C146.371 16.4693 146.587 16.6533 146.731 16.888C146.881 17.1173 146.955 17.376 146.955 17.664C146.955 17.9733 146.873 18.2453 146.707 18.48C146.542 18.7093 146.315 18.88 146.027 18.992C146.358 19.0933 146.619 19.272 146.811 19.528C147.009 19.7787 147.107 20.0827 147.107 20.44C147.107 20.7867 147.022 21.0907 146.851 21.352C146.681 21.608 146.438 21.808 146.123 21.952C145.814 22.0907 145.457 22.16 145.051 22.16C144.646 22.16 144.289 22.0907 143.979 21.952C143.675 21.808 143.438 21.608 143.267 21.352C143.097 21.0907 143.011 20.7867 143.011 20.44C143.011 20.0827 143.107 19.776 143.299 19.52C143.491 19.264 143.753 19.088 144.083 18.992ZM146.251 17.752C146.251 17.4267 146.145 17.176 145.931 17C145.718 16.824 145.425 16.736 145.051 16.736C144.683 16.736 144.393 16.824 144.179 17C143.966 17.176 143.859 17.4293 143.859 17.76C143.859 18.0587 143.969 18.2987 144.187 18.48C144.411 18.6613 144.699 18.752 145.051 18.752C145.409 18.752 145.697 18.6613 145.915 18.48C146.139 18.2933 146.251 18.0507 146.251 17.752ZM145.051 19.312C144.657 19.312 144.334 19.4053 144.083 19.592C143.833 19.7733 143.707 20.048 143.707 20.416C143.707 20.7573 143.827 21.032 144.067 21.24C144.313 21.448 144.641 21.552 145.051 21.552C145.462 21.552 145.787 21.448 146.027 21.24C146.267 21.032 146.387 20.7573 146.387 20.416C146.387 20.0587 146.265 19.7867 146.019 19.6C145.774 19.408 145.451 19.312 145.051 19.312ZM153.047 14.464L150.855 23.36L150.135 23.36L152.319 14.464L153.047 14.464ZM161.92 16.464L161.92 22L161.192 22L161.192 17.872L159.352 22L158.84 22L156.992 17.864L156.992 22L156.264 22L156.264 16.464L157.048 16.464L159.096 21.04L161.144 16.464L161.92 16.464ZM165.067 22.072C164.656 22.072 164.283 21.9787 163.947 21.792C163.616 21.6053 163.355 21.3413 163.163 21C162.976 20.6533 162.883 20.2533 162.883 19.8C162.883 19.352 162.979 18.9573 163.171 18.616C163.368 18.2693 163.635 18.0053 163.971 17.824C164.307 17.6373 164.683 17.544 165.099 17.544C165.515 17.544 165.891 17.6373 166.227 17.824C166.563 18.0053 166.827 18.2667 167.019 18.608C167.216 18.9493 167.315 19.3467 167.315 19.8C167.315 20.2533 167.214 20.6533 167.011 21C166.814 21.3413 166.544 21.6053 166.203 21.792C165.862 21.9787 165.483 22.072 165.067 22.072ZM165.067 21.432C165.328 21.432 165.574 21.3707 165.803 21.248C166.032 21.1253 166.216 20.9413 166.355 20.696C166.499 20.4507 166.571 20.152 166.571 19.8C166.571 19.448 166.502 19.1493 166.363 18.904C166.224 18.6587 166.043 18.4773 165.819 18.36C165.595 18.2373 165.352 18.176 165.091 18.176C164.824 18.176 164.579 18.2373 164.355 18.36C164.136 18.4773 163.96 18.6587 163.827 18.904C163.694 19.1493 163.627 19.448 163.627 19.8C163.627 20.1573 163.691 20.4587 163.819 20.704C163.952 20.9493 164.128 21.1333 164.347 21.256C164.566 21.3733 164.806 21.432 165.067 21.432ZM170.408 17.536C170.942 17.536 171.374 17.6987 171.704 18.024C172.035 18.344 172.2 18.808 172.2 19.416L172.2 22L171.48 22L171.48 19.52C171.48 19.0827 171.371 18.7493 171.152 18.52C170.934 18.2853 170.635 18.168 170.256 18.168C169.872 18.168 169.566 18.288 169.336 18.528C169.112 18.768 169 19.1173 169 19.576L169 22L168.272 22L168.272 17.616L169 17.616L169 18.24C169.144 18.016 169.339 17.8427 169.584 17.72C169.835 17.5973 170.11 17.536 170.408 17.536ZM174.277 18.216L174.277 20.8C174.277 21.0133 174.323 21.1653 174.413 21.256C174.504 21.3413 174.661 21.384 174.885 21.384L175.421 21.384L175.421 22L174.765 22C174.36 22 174.056 21.9067 173.853 21.72C173.651 21.5333 173.549 21.2267 173.549 20.8L173.549 18.216L172.981 18.216L172.981 17.616L173.549 17.616L173.549 16.512L174.277 16.512L174.277 17.616L175.421 17.616L175.421 18.216L174.277 18.216ZM178.48 17.536C178.81 17.536 179.109 17.608 179.376 17.752C179.642 17.8907 179.85 18.1013 180 18.384C180.154 18.6667 180.232 19.0107 180.232 19.416L180.232 22L179.512 22L179.512 19.52C179.512 19.0827 179.402 18.7493 179.184 18.52C178.965 18.2853 178.666 18.168 178.288 18.168C177.904 18.168 177.597 18.288 177.368 18.528C177.144 18.768 177.032 19.1173 177.032 19.576L177.032 22L176.304 22L176.304 16.08L177.032 16.08L177.032 18.24C177.176 18.016 177.373 17.8427 177.624 17.72C177.88 17.5973 178.165 17.536 178.48 17.536ZM187.554 19.64C187.554 19.7787 187.546 19.9253 187.529 20.08L184.026 20.08C184.052 20.512 184.199 20.8507 184.466 21.096C184.738 21.336 185.066 21.456 185.45 21.456C185.764 21.456 186.026 21.384 186.234 21.24C186.447 21.0907 186.596 20.8933 186.682 20.648L187.466 20.648C187.348 21.0693 187.114 21.4133 186.762 21.68C186.41 21.9413 185.972 22.072 185.45 22.072C185.034 22.072 184.66 21.9787 184.33 21.792C184.004 21.6053 183.748 21.3413 183.561 21C183.375 20.6533 183.281 20.2533 183.281 19.8C183.281 19.3467 183.372 18.9493 183.554 18.608C183.735 18.2667 183.988 18.0053 184.314 17.824C184.644 17.6373 185.023 17.544 185.45 17.544C185.866 17.544 186.234 17.6347 186.554 17.816C186.874 17.9973 187.119 18.248 187.29 18.568C187.466 18.8827 187.554 19.24 187.554 19.64ZM186.802 19.488C186.802 19.2107 186.74 18.9733 186.618 18.776C186.495 18.5733 186.327 18.4213 186.114 18.32C185.906 18.2133 185.674 18.16 185.417 18.16C185.05 18.16 184.735 18.2773 184.473 18.512C184.218 18.7467 184.071 19.072 184.034 19.488L186.802 19.488ZM188.242 19.792C188.242 19.344 188.333 18.952 188.514 18.616C188.696 18.2747 188.944 18.0107 189.258 17.824C189.578 17.6373 189.933 17.544 190.322 17.544C190.706 17.544 191.04 17.6267 191.322 17.792C191.605 17.9573 191.816 18.1653 191.954 18.416L191.954 17.616L192.69 17.616L192.69 22L191.954 22L191.954 21.184C191.81 21.44 191.594 21.6533 191.306 21.824C191.024 21.9893 190.693 22.072 190.314 22.072C189.925 22.072 189.573 21.976 189.258 21.784C188.944 21.592 188.696 21.3227 188.514 20.976C188.333 20.6293 188.242 20.2347 188.242 19.792ZM191.954 19.8C191.954 19.4693 191.888 19.1813 191.754 18.936C191.621 18.6907 191.44 18.504 191.21 18.376C190.986 18.2427 190.738 18.176 190.466 18.176C190.194 18.176 189.946 18.24 189.722 18.368C189.498 18.496 189.32 18.6827 189.186 18.928C189.053 19.1733 188.986 19.4613 188.986 19.792C188.986 20.128 189.053 20.4213 189.186 20.672C189.32 20.9173 189.498 21.1067 189.722 21.24C189.946 21.368 190.194 21.432 190.466 21.432C190.738 21.432 190.986 21.368 191.21 21.24C191.44 21.1067 191.621 20.9173 191.754 20.672C191.888 20.4213 191.954 20.1307 191.954 19.8ZM193.649 19.8C193.649 19.3467 193.739 18.952 193.921 18.616C194.102 18.2747 194.353 18.0107 194.673 17.824C194.998 17.6373 195.369 17.544 195.785 17.544C196.323 17.544 196.766 17.6747 197.113 17.936C197.465 18.1973 197.697 18.56 197.809 19.024L197.025 19.024C196.95 18.7573 196.803 18.5467 196.585 18.392C196.371 18.2373 196.105 18.16 195.785 18.16C195.369 18.16 195.033 18.304 194.777 18.592C194.521 18.8747 194.393 19.2773 194.393 19.8C194.393 20.328 194.521 20.736 194.777 21.024C195.033 21.312 195.369 21.456 195.785 21.456C196.105 21.456 196.371 21.3813 196.585 21.232C196.798 21.0827 196.945 20.8693 197.025 20.592L197.809 20.592C197.691 21.04 197.457 21.4 197.105 21.672C196.753 21.9387 196.313 22.072 195.785 22.072C195.369 22.072 194.998 21.9787 194.673 21.792C194.353 21.6053 194.102 21.3413 193.921 21C193.739 20.6587 193.649 20.2587 193.649 19.8ZM200.956 17.536C201.287 17.536 201.585 17.608 201.852 17.752C202.119 17.8907 202.327 18.1013 202.476 18.384C202.631 18.6667 202.708 19.0107 202.708 19.416L202.708 22L201.988 22L201.988 19.52C201.988 19.0827 201.879 18.7493 201.66 18.52C201.441 18.2853 201.143 18.168 200.764 18.168C200.38 18.168 200.073 18.288 199.844 18.528C199.62 18.768 199.508 19.1173 199.508 19.576L199.508 22L198.78 22L198.78 16.08L199.508 16.08L199.508 18.24C199.652 18.016 199.849 17.8427 200.1 17.72C200.356 17.5973 200.641 17.536 200.956 17.536ZM203.665 23.488L203.665 23.416C204.215 22.8507 204.631 22.192 204.913 21.44C205.201 20.688 205.345 19.8987 205.345 19.072C205.345 18.224 205.193 17.408 204.889 16.624C204.591 15.8347 204.143 15.16 203.545 14.6L203.545 14.528L204.305 14.528C204.865 15.0453 205.295 15.704 205.593 16.504C205.897 17.2987 206.049 18.1547 206.049 19.072C206.049 19.968 205.905 20.8027 205.617 21.576C205.335 22.3493 204.937 22.9867 204.425 23.488L203.665 23.488Z" fill="#606487"/>
<path d="M68.304 33.88L68.304 33.216L69.808 33.216L69.808 39L69.072 39L69.072 33.88L68.304 33.88ZM71.0585 36.048C71.0585 35.1307 71.2078 34.416 71.5065 33.904C71.8052 33.3867 72.3278 33.128 73.0745 33.128C73.8158 33.128 74.3358 33.3867 74.6345 33.904C74.9332 34.416 75.0825 35.1307 75.0825 36.048C75.0825 36.9813 74.9332 37.7067 74.6345 38.224C74.3358 38.7413 73.8158 39 73.0745 39C72.3278 39 71.8052 38.7413 71.5065 38.224C71.2078 37.7067 71.0585 36.9813 71.0585 36.048ZM74.3625 36.048C74.3625 35.584 74.3305 35.192 74.2665 34.872C74.2078 34.5467 74.0825 34.2853 73.8905 34.088C73.7038 33.8907 73.4318 33.792 73.0745 33.792C72.7118 33.792 72.4345 33.8907 72.2425 34.088C72.0558 34.2853 71.9305 34.5467 71.8665 34.872C71.8078 35.192 71.7785 35.584 71.7785 36.048C71.7785 36.528 71.8078 36.9307 71.8665 37.256C71.9305 37.5813 72.0558 37.8427 72.2425 38.04C72.4345 38.2373 72.7118 38.336 73.0745 38.336C73.4318 38.336 73.7038 38.2373 73.8905 38.04C74.0825 37.8427 74.2078 37.5813 74.2665 37.256C74.3305 36.9307 74.3625 36.528 74.3625 36.048ZM76.0819 36.048C76.0819 35.1307 76.2313 34.416 76.5299 33.904C76.8286 33.3867 77.3513 33.128 78.0979 33.128C78.8393 33.128 79.3593 33.3867 79.6579 33.904C79.9566 34.416 80.1059 35.1307 80.1059 36.048C80.1059 36.9813 79.9566 37.7067 79.6579 38.224C79.3593 38.7413 78.8393 39 78.0979 39C77.3513 39 76.8286 38.7413 76.5299 38.224C76.2313 37.7067 76.0819 36.9813 76.0819 36.048ZM79.3859 36.048C79.3859 35.584 79.3539 35.192 79.2899 34.872C79.2313 34.5467 79.1059 34.2853 78.9139 34.088C78.7273 33.8907 78.4553 33.792 78.0979 33.792C77.7353 33.792 77.4579 33.8907 77.2659 34.088C77.0793 34.2853 76.9539 34.5467 76.8899 34.872C76.8313 35.192 76.8019 35.584 76.8019 36.048C76.8019 36.528 76.8313 36.9307 76.8899 37.256C76.9539 37.5813 77.0793 37.8427 77.2659 38.04C77.4579 38.2373 77.7353 38.336 78.0979 38.336C78.4553 38.336 78.7273 38.2373 78.9139 38.04C79.1059 37.8427 79.2313 37.5813 79.2899 37.256C79.3539 36.9307 79.3859 36.528 79.3859 36.048ZM87.5822 35.04C87.4275 34.7147 87.2035 34.464 86.9102 34.288C86.6169 34.1067 86.2755 34.016 85.8862 34.016C85.4969 34.016 85.1449 34.1067 84.8302 34.288C84.5209 34.464 84.2755 34.72 84.0942 35.056C83.9182 35.3867 83.8302 35.7707 83.8302 36.208C83.8302 36.6453 83.9182 37.0293 84.0942 37.36C84.2755 37.6907 84.5209 37.9467 84.8302 38.128C85.1449 38.304 85.4969 38.392 85.8862 38.392C86.4302 38.392 86.8782 38.2293 87.2302 37.904C87.5822 37.5787 87.7875 37.1387 87.8462 36.584L85.6222 36.584L85.6222 35.992L88.6222 35.992L88.6222 36.552C88.5795 37.0107 88.4355 37.432 88.1902 37.816C87.9449 38.1947 87.6222 38.496 87.2222 38.72C86.8222 38.9387 86.3769 39.048 85.8862 39.048C85.3689 39.048 84.8969 38.928 84.4702 38.688C84.0435 38.4427 83.7049 38.104 83.4542 37.672C83.2089 37.24 83.0862 36.752 83.0862 36.208C83.0862 35.664 83.2089 35.176 83.4542 34.744C83.7049 34.3067 84.0435 33.968 84.4702 33.728C84.8969 33.4827 85.3689 33.36 85.8862 33.36C86.4782 33.36 87.0009 33.5067 87.4542 33.8C87.9129 34.0933 88.2462 34.5067 88.4542 35.04L87.5822 35.04ZM92.3768 36.128C92.5794 36.16 92.7634 36.2427 92.9288 36.376C93.0994 36.5093 93.2328 36.6747 93.3288 36.872C93.4301 37.0693 93.4808 37.28 93.4808 37.504C93.4808 37.7867 93.4088 38.0427 93.2647 38.272C93.1208 38.496 92.9101 38.6747 92.6328 38.808C92.3608 38.936 92.0381 39 91.6648 39L89.5848 39L89.5848 33.424L91.5848 33.424C91.9634 33.424 92.2861 33.488 92.5528 33.616C92.8194 33.7387 93.0194 33.9067 93.1527 34.12C93.2861 34.3333 93.3528 34.5733 93.3528 34.84C93.3528 35.1707 93.2621 35.4453 93.0807 35.664C92.9048 35.8773 92.6701 36.032 92.3768 36.128ZM90.3128 35.832L91.5368 35.832C91.8781 35.832 92.1421 35.752 92.3288 35.592C92.5154 35.432 92.6088 35.2107 92.6088 34.928C92.6088 34.6453 92.5154 34.424 92.3288 34.264C92.1421 34.104 91.8728 34.024 91.5208 34.024L90.3128 34.024L90.3128 35.832ZM91.6008 38.4C91.9634 38.4 92.2461 38.3147 92.4488 38.144C92.6514 37.9733 92.7528 37.736 92.7528 37.432C92.7528 37.1227 92.6461 36.88 92.4328 36.704C92.2194 36.5227 91.9341 36.432 91.5768 36.432L90.3128 36.432L90.3128 38.4L91.6008 38.4ZM97.3518 34.016L97.3518 35.88L99.3838 35.88L99.3838 36.48L97.3518 36.48L97.3518 38.4L99.6238 38.4L99.6238 39L96.6238 39L96.6238 33.416L99.6238 33.416L99.6238 34.016L97.3518 34.016ZM103.013 39L101.973 37.368L100.973 39L100.213 39L101.629 36.824L100.213 34.616L101.037 34.616L102.077 36.24L103.069 34.616L103.829 34.616L102.421 36.784L103.837 39L103.013 39ZM105.442 35.216L105.442 37.8C105.442 38.0133 105.487 38.1653 105.578 38.256C105.668 38.3413 105.826 38.384 106.049 38.384L106.586 38.384L106.586 39L105.93 39C105.524 39 105.22 38.9067 105.017 38.72C104.815 38.5333 104.713 38.2267 104.713 37.8L104.713 35.216L104.145 35.216L104.145 34.616L104.713 34.616L104.714 33.512L105.442 33.512L105.442 34.616L106.586 34.616L106.586 35.216L105.442 35.216ZM108.196 35.328C108.324 35.0773 108.505 34.8827 108.74 34.744C108.98 34.6053 109.27 34.536 109.612 34.536L109.612 35.288L109.42 35.288C108.604 35.288 108.196 35.7307 108.196 36.616L108.196 39L107.468 39L107.468 34.616L108.196 34.616L108.196 35.328ZM110.18 36.792C110.18 36.344 110.271 35.952 110.452 35.616C110.633 35.2747 110.881 35.0107 111.196 34.824C111.516 34.6373 111.871 34.544 112.26 34.544C112.644 34.544 112.977 34.6267 113.26 34.792C113.543 34.9573 113.753 35.1653 113.892 35.416L113.892 34.616L114.628 34.616L114.628 39L113.892 39L113.892 38.184C113.748 38.44 113.532 38.6533 113.244 38.824C112.961 38.9893 112.631 39.072 112.252 39.072C111.863 39.072 111.511 38.976 111.196 38.784C110.881 38.592 110.633 38.3227 110.452 37.976C110.271 37.6293 110.18 37.2347 110.18 36.792ZM113.892 36.8C113.892 36.4693 113.825 36.1813 113.692 35.936C113.559 35.6907 113.377 35.504 113.148 35.376C112.924 35.2427 112.676 35.176 112.404 35.176C112.132 35.176 111.884 35.24 111.66 35.368C111.436 35.496 111.257 35.6827 111.124 35.928C110.991 36.1733 110.924 36.4613 110.924 36.792C110.924 37.128 110.991 37.4213 111.124 37.672C111.257 37.9173 111.436 38.1067 111.66 38.24C111.884 38.368 112.132 38.432 112.404 38.432C112.676 38.432 112.924 38.368 113.148 38.24C113.377 38.1067 113.559 37.9173 113.692 37.672C113.825 37.4213 113.892 37.1307 113.892 36.8ZM119.543 39.072C119.207 39.072 118.906 39.016 118.639 38.904C118.372 38.7867 118.162 38.6267 118.007 38.424C117.852 38.216 117.767 37.9787 117.751 37.712L118.503 37.712C118.524 37.9307 118.626 38.1093 118.807 38.248C118.994 38.3867 119.236 38.456 119.535 38.456C119.812 38.456 120.031 38.3947 120.191 38.272C120.351 38.1493 120.431 37.9947 120.431 37.808C120.431 37.616 120.346 37.4747 120.175 37.384C120.004 37.288 119.74 37.1947 119.383 37.104C119.058 37.0187 118.791 36.9333 118.583 36.848C118.38 36.7573 118.204 36.6267 118.055 36.456C117.911 36.28 117.839 36.0507 117.839 35.768C117.839 35.544 117.906 35.3387 118.039 35.152C118.172 34.9653 118.362 34.8187 118.607 34.712C118.852 34.6 119.132 34.544 119.447 34.544C119.932 34.544 120.324 34.6667 120.623 34.912C120.922 35.1573 121.082 35.4933 121.103 35.92L120.375 35.92C120.359 35.6907 120.266 35.5067 120.095 35.368C119.93 35.2293 119.706 35.16 119.423 35.16C119.162 35.16 118.954 35.216 118.799 35.328C118.644 35.44 118.567 35.5867 118.567 35.768C118.567 35.912 118.612 36.032 118.703 36.128C118.799 36.2187 118.916 36.2933 119.055 36.352C119.199 36.4053 119.396 36.4667 119.647 36.536C119.962 36.6213 120.218 36.7067 120.415 36.792C120.612 36.872 120.78 36.9947 120.919 37.16C121.063 37.3253 121.138 37.5413 121.143 37.808C121.143 38.048 121.076 38.264 120.943 38.456C120.81 38.648 120.62 38.8 120.375 38.912C120.135 39.0187 119.858 39.072 119.543 39.072ZM123.059 35.216L123.059 37.8C123.059 38.0133 123.104 38.1653 123.195 38.256C123.285 38.3413 123.443 38.384 123.667 38.384L124.203 38.384L124.203 39L123.547 39C123.141 39 122.837 38.9067 122.635 38.72C122.432 38.5333 122.331 38.2267 122.331 37.8L122.331 35.216L121.763 35.216L121.763 34.616L122.331 34.616L122.331 33.512L123.059 33.512L123.059 34.616L124.203 34.616L124.203 35.216L123.059 35.216ZM126.997 39.072C126.586 39.072 126.213 38.9787 125.877 38.792C125.546 38.6053 125.285 38.3413 125.093 38C124.906 37.6533 124.813 37.2533 124.813 36.8C124.813 36.352 124.909 35.9573 125.101 35.616C125.298 35.2693 125.565 35.0053 125.901 34.824C126.237 34.6373 126.613 34.544 127.029 34.544C127.445 34.544 127.821 34.6373 128.157 34.824C128.493 35.0053 128.757 35.2667 128.949 35.608C129.146 35.9493 129.245 36.3467 129.245 36.8C129.245 37.2533 129.143 37.6533 128.941 38C128.743 38.3413 128.474 38.6053 128.133 38.792C127.791 38.9787 127.413 39.072 126.997 39.072ZM126.997 38.432C127.258 38.432 127.503 38.3707 127.733 38.248C127.962 38.1253 128.146 37.9413 128.285 37.696C128.429 37.4507 128.501 37.152 128.501 36.8C128.501 36.448 128.431 36.1493 128.293 35.904C128.154 35.6587 127.973 35.4773 127.749 35.36C127.525 35.2373 127.282 35.176 127.021 35.176C126.754 35.176 126.509 35.2373 126.285 35.36C126.066 35.4773 125.89 35.6587 125.757 35.904C125.623 36.1493 125.557 36.448 125.557 36.8C125.557 37.1573 125.621 37.4587 125.749 37.704C125.882 37.9493 126.058 38.1333 126.277 38.256C126.495 38.3733 126.735 38.432 126.997 38.432ZM130.93 35.328C131.058 35.0773 131.239 34.8827 131.474 34.744C131.714 34.6053 132.005 34.536 132.346 34.536L132.346 35.288L132.154 35.288C131.338 35.288 130.93 35.7307 130.93 36.616L130.93 39L130.202 39L130.202 34.616L130.93 34.616L130.93 35.328ZM132.914 36.792C132.914 36.344 133.005 35.952 133.186 35.616C133.368 35.2747 133.616 35.0107 133.93 34.824C134.25 34.6373 134.605 34.544 134.994 34.544C135.378 34.544 135.712 34.6267 135.994 34.792C136.277 34.9573 136.488 35.1653 136.626 35.416L136.626 34.616L137.362 34.616L137.362 39L136.626 39L136.626 38.184C136.482 38.44 136.266 38.6533 135.978 38.824C135.696 38.9893 135.365 39.072 134.986 39.072C134.597 39.072 134.245 38.976 133.93 38.784C133.616 38.592 133.368 38.3227 133.186 37.976C133.005 37.6293 132.914 37.2347 132.914 36.792ZM136.626 36.8C136.626 36.4693 136.56 36.1813 136.426 35.936C136.293 35.6907 136.112 35.504 135.882 35.376C135.658 35.2427 135.41 35.176 135.138 35.176C134.866 35.176 134.618 35.24 134.394 35.368C134.17 35.496 133.992 35.6827 133.858 35.928C133.725 36.1733 133.658 36.4613 133.658 36.792C133.658 37.128 133.725 37.4213 133.858 37.672C133.992 37.9173 134.17 38.1067 134.394 38.24C134.618 38.368 134.866 38.432 135.138 38.432C135.41 38.432 135.658 38.368 135.882 38.24C136.112 38.1067 136.293 37.9173 136.426 37.672C136.56 37.4213 136.626 37.1307 136.626 36.8ZM140.401 34.544C140.779 34.544 141.11 34.6267 141.393 34.792C141.681 34.9573 141.894 35.1653 142.033 35.416L142.033 34.616L142.769 34.616L142.769 39.096C142.769 39.496 142.683 39.8507 142.513 40.16C142.342 40.4747 142.097 40.72 141.777 40.896C141.462 41.072 141.094 41.16 140.673 41.16C140.097 41.16 139.617 41.024 139.233 40.752C138.849 40.48 138.622 40.1093 138.553 39.64L139.273 39.64C139.353 39.9067 139.518 40.12 139.769 40.28C140.019 40.4453 140.321 40.528 140.673 40.528C141.073 40.528 141.398 40.4027 141.649 40.152C141.905 39.9013 142.033 39.5493 142.033 39.096L142.033 38.176C141.889 38.432 141.675 38.6453 141.393 38.816C141.11 38.9867 140.779 39.072 140.401 39.072C140.011 39.072 139.657 38.976 139.337 38.784C139.022 38.592 138.774 38.3227 138.593 37.976C138.411 37.6293 138.321 37.2347 138.321 36.792C138.321 36.344 138.411 35.952 138.593 35.616C138.774 35.2747 139.022 35.0107 139.337 34.824C139.657 34.6373 140.011 34.544 140.401 34.544ZM142.033 36.8C142.033 36.4693 141.966 36.1813 141.833 35.936C141.699 35.6907 141.518 35.504 141.289 35.376C141.065 35.2427 140.817 35.176 140.545 35.176C140.273 35.176 140.025 35.24 139.801 35.368C139.577 35.496 139.398 35.6827 139.265 35.928C139.131 36.1733 139.065 36.4613 139.065 36.792C139.065 37.128 139.131 37.4213 139.265 37.672C139.398 37.9173 139.577 38.1067 139.801 38.24C140.025 38.368 140.273 38.432 140.545 38.432C140.817 38.432 141.065 38.368 141.289 38.24C141.518 38.1067 141.699 37.9173 141.833 37.672C141.966 37.4213 142.033 37.1307 142.033 36.8ZM147.999 36.64C147.999 36.7787 147.991 36.9253 147.975 37.08L144.471 37.08C144.497 37.512 144.644 37.8507 144.911 38.096C145.183 38.336 145.511 38.456 145.895 38.456C146.209 38.456 146.471 38.384 146.679 38.24C146.892 38.0907 147.041 37.8933 147.127 37.648L147.911 37.648C147.793 38.0693 147.559 38.4133 147.207 38.68C146.855 38.9413 146.417 39.072 145.895 39.072C145.479 39.072 145.105 38.9787 144.775 38.792C144.449 38.6053 144.193 38.3413 144.007 38C143.82 37.6533 143.727 37.2533 143.727 36.8C143.727 36.3467 143.817 35.9493 143.999 35.608C144.18 35.2667 144.433 35.0053 144.759 34.824C145.089 34.6373 145.468 34.544 145.895 34.544C146.311 34.544 146.679 34.6347 146.999 34.816C147.319 34.9973 147.564 35.248 147.735 35.568C147.911 35.8827 147.999 36.24 147.999 36.64ZM147.247 36.488C147.247 36.2107 147.185 35.9733 147.063 35.776C146.94 35.5733 146.772 35.4213 146.559 35.32C146.351 35.2133 146.119 35.16 145.863 35.16C145.495 35.16 145.18 35.2773 144.919 35.512C144.663 35.7467 144.516 36.072 144.479 36.488L147.247 36.488ZM152.965 40.488C152.453 39.9867 152.053 39.3493 151.765 38.576C151.482 37.8027 151.341 36.968 151.341 36.072C151.341 35.1547 151.49 34.2987 151.789 33.504C152.093 32.704 152.525 32.0453 153.085 31.528L153.845 31.528L153.845 31.6C153.247 32.16 152.797 32.8347 152.493 33.624C152.194 34.408 152.045 35.224 152.045 36.072C152.045 36.8987 152.186 37.688 152.469 38.44C152.757 39.192 153.175 39.8507 153.725 40.416L153.725 40.488L152.965 40.488ZM158.325 37.472C158.325 37.728 158.261 37.9733 158.133 38.208C158.005 38.4373 157.816 38.6293 157.565 38.784C157.32 38.9387 157.024 39.0267 156.677 39.048L156.677 39.696L156.245 39.696L156.245 39.048C155.76 39.0053 155.365 38.8507 155.061 38.584C154.757 38.312 154.603 37.968 154.597 37.552L155.373 37.552C155.395 37.776 155.477 37.9707 155.621 38.136C155.771 38.3013 155.979 38.4053 156.245 38.448L156.245 36.448C155.888 36.3573 155.6 36.264 155.381 36.168C155.163 36.072 154.976 35.9227 154.821 35.72C154.667 35.5173 154.589 35.2453 154.589 34.904C154.589 34.472 154.739 34.1147 155.037 33.832C155.341 33.5493 155.744 33.392 156.245 33.36L156.245 32.696L156.677 32.696L156.677 33.36C157.131 33.3973 157.496 33.544 157.773 33.8C158.051 34.0507 158.211 34.3787 158.253 34.784L157.477 34.784C157.451 34.5973 157.368 34.4293 157.229 34.28C157.091 34.1253 156.907 34.024 156.677 33.976L156.677 35.928C157.029 36.0187 157.315 36.112 157.533 36.208C157.757 36.2987 157.944 36.4453 158.093 36.648C158.248 36.8507 158.325 37.1253 158.325 37.472ZM155.333 34.864C155.333 35.1253 155.411 35.3253 155.565 35.464C155.72 35.6027 155.947 35.7173 156.245 35.808L156.245 33.96C155.968 33.9867 155.747 34.0773 155.581 34.232C155.416 34.3813 155.333 34.592 155.333 34.864ZM156.677 38.456C156.965 38.424 157.189 38.32 157.349 38.144C157.515 37.968 157.597 37.7573 157.597 37.512C157.597 37.2507 157.517 37.0507 157.357 36.912C157.197 36.768 156.971 36.6533 156.677 36.568L156.677 38.456ZM159.494 38.416C160.171 37.872 160.702 37.4267 161.086 37.08C161.47 36.728 161.793 36.3627 162.054 35.984C162.321 35.6 162.454 35.224 162.454 34.856C162.454 34.5093 162.369 34.2373 162.198 34.04C162.033 33.8373 161.763 33.736 161.39 33.736C161.027 33.736 160.745 33.8507 160.542 34.08C160.345 34.304 160.238 34.6053 160.222 34.984L159.518 34.984C159.539 34.3867 159.721 33.9253 160.062 33.6C160.403 33.2747 160.843 33.112 161.382 33.112C161.931 33.112 162.366 33.264 162.686 33.568C163.011 33.872 163.174 34.2907 163.174 34.824C163.174 35.2667 163.041 35.6987 162.774 36.12C162.513 36.536 162.214 36.904 161.878 37.224C161.542 37.5387 161.113 37.9067 160.59 38.328L163.342 38.328L163.342 38.936L159.494 38.936L159.494 38.416ZM167.871 33.848L165.064 33.848L165.064 35.672C165.186 35.5013 165.368 35.3627 165.608 35.256C165.848 35.144 166.106 35.088 166.384 35.088C166.826 35.088 167.186 35.1813 167.464 35.368C167.741 35.5493 167.938 35.7867 168.055 36.08C168.178 36.368 168.24 36.6747 168.24 37C168.24 37.384 168.168 37.728 168.024 38.032C167.88 38.336 167.658 38.576 167.36 38.752C167.066 38.928 166.701 39.016 166.264 39.016C165.704 39.016 165.25 38.872 164.904 38.584C164.557 38.296 164.346 37.912 164.272 37.432L164.983 37.432C165.053 37.736 165.2 37.9733 165.424 38.144C165.647 38.3147 165.93 38.4 166.272 38.4C166.693 38.4 167.01 38.2747 167.224 38.024C167.437 37.768 167.544 37.432 167.544 37.016C167.544 36.6 167.437 36.28 167.224 36.056C167.01 35.8267 166.696 35.712 166.279 35.712C165.997 35.712 165.749 35.7813 165.536 35.92C165.327 36.0533 165.176 36.2373 165.08 36.472L164.392 36.472L164.392 33.208L167.871 33.208L167.871 33.848ZM169.559 39.048C169.42 39.048 169.303 39 169.207 38.904C169.111 38.808 169.063 38.6907 169.063 38.552C169.063 38.4133 169.111 38.296 169.207 38.2C169.303 38.104 169.42 38.056 169.559 38.056C169.692 38.056 169.804 38.104 169.895 38.2C169.991 38.296 170.039 38.4133 170.039 38.552C170.039 38.6907 169.991 38.808 169.895 38.904C169.804 39 169.692 39.048 169.559 39.048ZM170.887 36.048C170.887 35.1307 171.036 34.416 171.335 33.904C171.633 33.3867 172.156 33.128 172.903 33.128C173.644 33.128 174.164 33.3867 174.463 33.904C174.761 34.416 174.911 35.1307 174.911 36.048C174.911 36.9813 174.761 37.7067 174.463 38.224C174.164 38.7413 173.644 39 172.903 39C172.156 39 171.633 38.7413 171.335 38.224C171.036 37.7067 170.887 36.9813 170.887 36.048ZM174.191 36.048C174.191 35.584 174.159 35.192 174.095 34.872C174.036 34.5467 173.911 34.2853 173.719 34.088C173.532 33.8907 173.26 33.792 172.903 33.792C172.54 33.792 172.263 33.8907 172.071 34.088C171.884 34.2853 171.759 34.5467 171.695 34.872C171.636 35.192 171.607 35.584 171.607 36.048C171.607 36.528 171.636 36.9307 171.695 37.256C171.759 37.5813 171.884 37.8427 172.071 38.04C172.263 38.2373 172.54 38.336 172.903 38.336C173.26 38.336 173.532 38.2373 173.719 38.04C173.911 37.8427 174.036 37.5813 174.095 37.256C174.159 36.9307 174.191 36.528 174.191 36.048ZM175.91 36.048C175.91 35.1307 176.059 34.416 176.358 33.904C176.657 33.3867 177.179 33.128 177.926 33.128C178.667 33.128 179.187 33.3867 179.486 33.904C179.785 34.416 179.934 35.1307 179.934 36.048C179.934 36.9813 179.785 37.7067 179.486 38.224C179.187 38.7413 178.667 39 177.926 39C177.179 39 176.657 38.7413 176.358 38.224C176.059 37.7067 175.91 36.9813 175.91 36.048ZM179.214 36.048C179.214 35.584 179.182 35.192 179.118 34.872C179.059 34.5467 178.934 34.2853 178.742 34.088C178.555 33.8907 178.283 33.792 177.926 33.792C177.563 33.792 177.286 33.8907 177.094 34.088C176.907 34.2853 176.782 34.5467 176.718 34.872C176.659 35.192 176.63 35.584 176.63 36.048C176.63 36.528 176.659 36.9307 176.718 37.256C176.782 37.5813 176.907 37.8427 177.094 38.04C177.286 38.2373 177.563 38.336 177.926 38.336C178.283 38.336 178.555 38.2373 178.742 38.04C178.934 37.8427 179.059 37.5813 179.118 37.256C179.182 36.9307 179.214 36.528 179.214 36.048ZM180.821 40.488L180.821 40.416C181.371 39.8507 181.787 39.192 182.07 38.44C182.358 37.688 182.502 36.8987 182.502 36.072C182.502 35.224 182.35 34.408 182.046 33.624C181.747 32.8347 181.299 32.16 180.701 31.6L180.701 31.528L181.462 31.528C182.022 32.0453 182.451 32.704 182.75 33.504C183.054 34.2987 183.206 35.1547 183.206 36.072C183.206 36.968 183.062 37.8027 182.774 38.576C182.491 39.3493 182.094 39.9867 181.581 40.488L180.821 40.488Z" fill="#606487"/>
<circle cx="63" cy="37" r="1" fill="#878DC5"/>
<path d="M69.552 51.992C69.2533 51.8747 69.024 51.704 68.864 51.48C68.704 51.256 68.624 50.984 68.624 50.664C68.624 50.376 68.696 50.1173 68.84 49.888C68.984 49.6533 69.1973 49.4693 69.48 49.336C69.768 49.1973 70.1147 49.128 70.52 49.128C70.9253 49.128 71.2693 49.1973 71.552 49.336C71.84 49.4693 72.056 49.6533 72.2 49.888C72.3493 50.1173 72.424 50.376 72.424 50.664C72.424 50.9733 72.3413 51.2453 72.176 51.48C72.0107 51.7093 71.784 51.88 71.496 51.992C71.8267 52.0933 72.088 52.272 72.28 52.528C72.4773 52.7787 72.576 53.0827 72.576 53.44C72.576 53.7867 72.4907 54.0907 72.32 54.352C72.1493 54.608 71.9067 54.808 71.592 54.952C71.2827 55.0907 70.9253 55.16 70.52 55.16C70.1147 55.16 69.7573 55.0907 69.448 54.952C69.144 54.808 68.9067 54.608 68.736 54.352C68.5653 54.0907 68.48 53.7867 68.48 53.44C68.48 53.0827 68.576 52.776 68.768 52.52C68.96 52.264 69.2213 52.088 69.552 51.992ZM71.72 50.752C71.72 50.4267 71.6133 50.176 71.4 50C71.1867 49.824 70.8933 49.736 70.52 49.736C70.152 49.736 69.8613 49.824 69.648 50C69.4347 50.176 69.328 50.4293 69.328 50.76C69.328 51.0587 69.4373 51.2987 69.656 51.48C69.88 51.6613 70.168 51.752 70.52 51.752C70.8773 51.752 71.1653 51.6613 71.384 51.48C71.608 51.2933 71.72 51.0507 71.72 50.752ZM70.52 52.312C70.1253 52.312 69.8027 52.4053 69.552 52.592C69.3013 52.7733 69.176 53.048 69.176 53.416C69.176 53.7573 69.296 54.032 69.536 54.24C69.7813 54.448 70.1093 54.552 70.52 54.552C70.9307 54.552 71.256 54.448 71.496 54.24C71.736 54.032 71.856 53.7573 71.856 53.416C71.856 53.0587 71.7333 52.7867 71.488 52.6C71.2427 52.408 70.92 52.312 70.52 52.312ZM79.7957 52.64C79.7957 52.7787 79.7877 52.9253 79.7717 53.08L76.2677 53.08C76.2944 53.512 76.441 53.8507 76.7077 54.096C76.9797 54.336 77.3077 54.456 77.6917 54.456C78.0064 54.456 78.2677 54.384 78.4757 54.24C78.689 54.0907 78.8384 53.8933 78.9237 53.648L79.7077 53.648C79.5904 54.0693 79.3557 54.4133 79.0037 54.68C78.6517 54.9413 78.2144 55.072 77.6917 55.072C77.2757 55.072 76.9024 54.9787 76.5717 54.792C76.2464 54.6053 75.9904 54.3413 75.8037 54C75.617 53.6533 75.5237 53.2533 75.5237 52.8C75.5237 52.3467 75.6144 51.9493 75.7957 51.608C75.977 51.2667 76.2304 51.0053 76.5557 50.824C76.8864 50.6373 77.265 50.544 77.6917 50.544C78.1077 50.544 78.4757 50.6347 78.7957 50.816C79.1157 50.9973 79.361 51.248 79.5317 51.568C79.7077 51.8827 79.7957 52.24 79.7957 52.64ZM79.0437 52.488C79.0437 52.2107 78.9824 51.9733 78.8597 51.776C78.737 51.5733 78.569 51.4213 78.3557 51.32C78.1477 51.2133 77.9157 51.16 77.6597 51.16C77.2917 51.16 76.977 51.2773 76.7157 51.512C76.4597 51.7467 76.313 52.072 76.2757 52.488L79.0437 52.488ZM83.0446 55L82.0046 53.368L81.0046 55L80.2446 55L81.6606 52.824L80.2446 50.616L81.0686 50.616L82.1086 52.24L83.1006 50.616L83.8606 50.616L82.4526 52.784L83.8686 55L83.0446 55ZM85.4728 51.216L85.4728 53.8C85.4728 54.0133 85.5181 54.1653 85.6088 54.256C85.6994 54.3413 85.8568 54.384 86.0807 54.384L86.6168 54.384L86.6168 55L85.9608 55C85.5554 55 85.2514 54.9067 85.0487 54.72C84.8461 54.5333 84.7447 54.2267 84.7447 53.8L84.7447 51.216L84.1767 51.216L84.1767 50.616L84.7447 50.616L84.7448 49.512L85.4728 49.512L85.4728 50.616L86.6168 50.616L86.6168 51.216L85.4728 51.216ZM88.2268 51.328C88.3548 51.0773 88.5361 50.8827 88.7708 50.744C89.0108 50.6053 89.3015 50.536 89.6428 50.536L89.6428 51.288L89.4508 51.288C88.6348 51.288 88.2268 51.7307 88.2268 52.616L88.2268 55L87.4988 55L87.4988 50.616L88.2268 50.616L88.2268 51.328ZM90.2112 52.792C90.2112 52.344 90.3019 51.952 90.4832 51.616C90.6645 51.2747 90.9125 51.0107 91.2272 50.824C91.5472 50.6373 91.9019 50.544 92.2912 50.544C92.6752 50.544 93.0085 50.6267 93.2912 50.792C93.5739 50.9573 93.7845 51.1653 93.9232 51.416L93.9232 50.616L94.6592 50.616L94.6592 55L93.9232 55L93.9232 54.184C93.7792 54.44 93.5632 54.6533 93.2752 54.824C92.9925 54.9893 92.6619 55.072 92.2832 55.072C91.8939 55.072 91.5419 54.976 91.2272 54.784C90.9125 54.592 90.6645 54.3227 90.4832 53.976C90.3019 53.6293 90.2112 53.2347 90.2112 52.792ZM93.9232 52.8C93.9232 52.4693 93.8565 52.1813 93.7232 51.936C93.5899 51.6907 93.4085 51.504 93.1792 51.376C92.9552 51.2427 92.7072 51.176 92.4352 51.176C92.1632 51.176 91.9152 51.24 91.6912 51.368C91.4672 51.496 91.2885 51.6827 91.1552 51.928C91.0219 52.1733 90.9552 52.4613 90.9552 52.792C90.9552 53.128 91.0219 53.4213 91.1552 53.672C91.2885 53.9173 91.4672 54.1067 91.6912 54.24C91.9152 54.368 92.1632 54.432 92.4352 54.432C92.7072 54.432 92.9552 54.368 93.1792 54.24C93.4085 54.1067 93.5899 53.9173 93.7232 53.672C93.8565 53.4213 93.9232 53.1307 93.9232 52.8ZM100.198 50.536C100.529 50.536 100.828 50.608 101.094 50.752C101.361 50.8907 101.569 51.1013 101.718 51.384C101.873 51.6667 101.95 52.0107 101.95 52.416L101.95 55L101.23 55L101.23 52.52C101.23 52.0827 101.121 51.7493 100.902 51.52C100.684 51.2853 100.385 51.168 100.006 51.168C99.6223 51.168 99.3156 51.288 99.0863 51.528C98.8623 51.768 98.7503 52.1173 98.7503 52.576L98.7503 55L98.0223 55L98.0223 49.08L98.7503 49.08L98.7503 51.24C98.8943 51.016 99.0916 50.8427 99.3423 50.72C99.5983 50.5973 99.8836 50.536 100.198 50.536ZM105.051 55.072C104.641 55.072 104.267 54.9787 103.931 54.792C103.601 54.6053 103.339 54.3413 103.147 54C102.961 53.6533 102.867 53.2533 102.867 52.8C102.867 52.352 102.963 51.9573 103.155 51.616C103.353 51.2693 103.619 51.0053 103.955 50.824C104.291 50.6373 104.667 50.544 105.083 50.544C105.499 50.544 105.875 50.6373 106.211 50.824C106.547 51.0053 106.811 51.2667 107.003 51.608C107.201 51.9493 107.299 52.3467 107.299 52.8C107.299 53.2533 107.198 53.6533 106.995 54C106.798 54.3413 106.529 54.6053 106.187 54.792C105.846 54.9787 105.467 55.072 105.051 55.072ZM105.051 54.432C105.313 54.432 105.558 54.3707 105.787 54.248C106.017 54.1253 106.201 53.9413 106.339 53.696C106.483 53.4507 106.555 53.152 106.555 52.8C106.555 52.448 106.486 52.1493 106.347 51.904C106.209 51.6587 106.027 51.4773 105.803 51.36C105.579 51.2373 105.337 51.176 105.075 51.176C104.809 51.176 104.563 51.2373 104.339 51.36C104.121 51.4773 103.945 51.6587 103.811 51.904C103.678 52.1493 103.611 52.448 103.611 52.8C103.611 53.1573 103.675 53.4587 103.803 53.704C103.937 53.9493 104.113 54.1333 104.331 54.256C104.55 54.3733 104.79 54.432 105.051 54.432ZM112.145 50.616L112.145 55L111.417 55L111.417 54.352C111.278 54.576 111.083 54.752 110.833 54.88C110.587 55.0027 110.315 55.064 110.017 55.064C109.675 55.064 109.369 54.9947 109.097 54.856C108.825 54.712 108.609 54.4987 108.449 54.216C108.294 53.9333 108.217 53.5893 108.217 53.184L108.217 50.616L108.937 50.616L108.937 53.088C108.937 53.52 109.046 53.8533 109.265 54.088C109.483 54.3173 109.782 54.432 110.161 54.432C110.55 54.432 110.857 54.312 111.081 54.072C111.305 53.832 111.417 53.4827 111.417 53.024L111.417 50.616L112.145 50.616ZM114.102 51.328C114.23 51.0773 114.411 50.8827 114.646 50.744C114.886 50.6053 115.176 50.536 115.518 50.536L115.518 51.288L115.326 51.288C114.51 51.288 114.102 51.7307 114.102 52.616L114.102 55L113.374 55L113.374 50.616L114.102 50.616L114.102 51.328ZM117.91 55.072C117.574 55.072 117.273 55.016 117.006 54.904C116.74 54.7867 116.529 54.6267 116.374 54.424C116.22 54.216 116.134 53.9787 116.118 53.712L116.87 53.712C116.892 53.9307 116.993 54.1093 117.174 54.248C117.361 54.3867 117.604 54.456 117.902 54.456C118.18 54.456 118.398 54.3947 118.558 54.272C118.718 54.1493 118.798 53.9947 118.798 53.808C118.798 53.616 118.713 53.4747 118.542 53.384C118.372 53.288 118.108 53.1947 117.75 53.104C117.425 53.0187 117.158 52.9333 116.95 52.848C116.748 52.7573 116.572 52.6267 116.422 52.456C116.278 52.28 116.206 52.0507 116.206 51.768C116.206 51.544 116.273 51.3387 116.406 51.152C116.54 50.9653 116.729 50.8187 116.974 50.712C117.22 50.6 117.5 50.544 117.814 50.544C118.3 50.544 118.692 50.6667 118.99 50.912C119.289 51.1573 119.449 51.4933 119.47 51.92L118.742 51.92C118.726 51.6907 118.633 51.5067 118.462 51.368C118.297 51.2293 118.073 51.16 117.79 51.16C117.529 51.16 117.321 51.216 117.166 51.328C117.012 51.44 116.934 51.5867 116.934 51.768C116.934 51.912 116.98 52.032 117.07 52.128C117.166 52.2187 117.284 52.2933 117.422 52.352C117.566 52.4053 117.764 52.4667 118.014 52.536C118.329 52.6213 118.585 52.7067 118.782 52.792C118.98 52.872 119.148 52.9947 119.286 53.16C119.43 53.3253 119.505 53.5413 119.51 53.808C119.51 54.048 119.444 54.264 119.31 54.456C119.177 54.648 118.988 54.8 118.742 54.912C118.502 55.0187 118.225 55.072 117.91 55.072ZM124.543 56.488C124.031 55.9867 123.631 55.3493 123.343 54.576C123.06 53.8027 122.919 52.968 122.919 52.072C122.919 51.1547 123.068 50.2987 123.367 49.504C123.671 48.704 124.103 48.0453 124.663 47.528L125.423 47.528L125.423 47.6C124.825 48.16 124.375 48.8347 124.071 49.624C123.772 50.408 123.623 51.224 123.623 52.072C123.623 52.8987 123.764 53.688 124.047 54.44C124.335 55.192 124.753 55.8507 125.303 56.416L125.303 56.488L124.543 56.488ZM129.904 53.472C129.904 53.728 129.84 53.9733 129.712 54.208C129.584 54.4373 129.394 54.6293 129.144 54.784C128.898 54.9387 128.602 55.0267 128.256 55.048L128.256 55.696L127.824 55.696L127.824 55.048C127.338 55.0053 126.944 54.8507 126.639 54.584C126.335 54.312 126.181 53.968 126.175 53.552L126.952 53.552C126.973 53.776 127.055 53.9707 127.2 54.136C127.349 54.3013 127.557 54.4053 127.824 54.448L127.824 52.448C127.466 52.3573 127.178 52.264 126.96 52.168C126.741 52.072 126.554 51.9227 126.399 51.72C126.245 51.5173 126.167 51.2453 126.167 50.904C126.167 50.472 126.317 50.1147 126.616 49.832C126.92 49.5493 127.322 49.392 127.824 49.36L127.824 48.696L128.256 48.696L128.256 49.36C128.709 49.3973 129.074 49.544 129.352 49.8C129.629 50.0507 129.789 50.3787 129.832 50.784L129.056 50.784C129.029 50.5973 128.946 50.4293 128.808 50.28C128.669 50.1253 128.485 50.024 128.256 49.976L128.256 51.928C128.608 52.0187 128.893 52.112 129.112 52.208C129.336 52.2987 129.522 52.4453 129.672 52.648C129.826 52.8507 129.904 53.1253 129.904 53.472ZM126.912 50.864C126.912 51.1253 126.989 51.3253 127.144 51.464C127.298 51.6027 127.525 51.7173 127.824 51.808L127.824 49.96C127.546 49.9867 127.325 50.0773 127.16 50.232C126.994 50.3813 126.912 50.592 126.912 50.864ZM128.256 54.456C128.544 54.424 128.768 54.32 128.928 54.144C129.093 53.968 129.176 53.7573 129.176 53.512C129.176 53.2507 129.096 53.0507 128.936 52.912C128.776 52.768 128.549 52.6533 128.256 52.568L128.256 54.456ZM131.072 54.416C131.749 53.872 132.28 53.4267 132.664 53.08C133.048 52.728 133.371 52.3627 133.632 51.984C133.899 51.6 134.032 51.224 134.032 50.856C134.032 50.5093 133.947 50.2373 133.776 50.04C133.611 49.8373 133.341 49.736 132.968 49.736C132.605 49.736 132.323 49.8507 132.12 50.08C131.923 50.304 131.816 50.6053 131.8 50.984L131.096 50.984C131.117 50.3867 131.299 49.9253 131.64 49.6C131.981 49.2747 132.421 49.112 132.96 49.112C133.509 49.112 133.944 49.264 134.264 49.568C134.589 49.872 134.752 50.2907 134.752 50.824C134.752 51.2667 134.619 51.6987 134.352 52.12C134.091 52.536 133.792 52.904 133.456 53.224C133.12 53.5387 132.691 53.9067 132.168 54.328L134.92 54.328L134.92 54.936L131.072 54.936L131.072 54.416ZM140.734 47.464L138.542 56.36L137.822 56.36L140.006 47.464L140.734 47.464ZM146.128 50.536C146.459 50.536 146.757 50.608 147.024 50.752C147.291 50.8907 147.499 51.1013 147.648 51.384C147.803 51.6667 147.88 52.0107 147.88 52.416L147.88 55L147.16 55L147.16 52.52C147.16 52.0827 147.051 51.7493 146.832 51.52C146.613 51.2853 146.315 51.168 145.936 51.168C145.552 51.168 145.245 51.288 145.016 51.528C144.792 51.768 144.68 52.1173 144.68 52.576L144.68 55L143.952 55L143.952 49.08L144.68 49.08L144.68 51.24C144.824 51.016 145.021 50.8427 145.272 50.72C145.528 50.5973 145.813 50.536 146.128 50.536ZM150.981 55.072C150.57 55.072 150.197 54.9787 149.861 54.792C149.53 54.6053 149.269 54.3413 149.077 54C148.89 53.6533 148.797 53.2533 148.797 52.8C148.797 52.352 148.893 51.9573 149.085 51.616C149.282 51.2693 149.549 51.0053 149.885 50.824C150.221 50.6373 150.597 50.544 151.013 50.544C151.429 50.544 151.805 50.6373 152.141 50.824C152.477 51.0053 152.741 51.2667 152.933 51.608C153.13 51.9493 153.229 52.3467 153.229 52.8C153.229 53.2533 153.128 53.6533 152.925 54C152.728 54.3413 152.458 54.6053 152.117 54.792C151.776 54.9787 151.397 55.072 150.981 55.072ZM150.981 54.432C151.242 54.432 151.488 54.3707 151.717 54.248C151.946 54.1253 152.13 53.9413 152.269 53.696C152.413 53.4507 152.485 53.152 152.485 52.8C152.485 52.448 152.416 52.1493 152.277 51.904C152.138 51.6587 151.957 51.4773 151.733 51.36C151.509 51.2373 151.266 51.176 151.005 51.176C150.738 51.176 150.493 51.2373 150.269 51.36C150.05 51.4773 149.874 51.6587 149.741 51.904C149.608 52.1493 149.541 52.448 149.541 52.8C149.541 53.1573 149.605 53.4587 149.733 53.704C149.866 53.9493 150.042 54.1333 150.261 54.256C150.48 54.3733 150.72 54.432 150.981 54.432ZM158.074 50.616L158.074 55L157.346 55L157.346 54.352C157.208 54.576 157.013 54.752 156.762 54.88C156.517 55.0027 156.245 55.064 155.946 55.064C155.605 55.064 155.298 54.9947 155.026 54.856C154.754 54.712 154.538 54.4987 154.378 54.216C154.224 53.9333 154.146 53.5893 154.146 53.184L154.146 50.616L154.866 50.616L154.866 53.088C154.866 53.52 154.976 53.8533 155.194 54.088C155.413 54.3173 155.712 54.432 156.09 54.432C156.48 54.432 156.786 54.312 157.01 54.072C157.234 53.832 157.346 53.4827 157.346 53.024L157.346 50.616L158.074 50.616ZM160.032 51.328C160.16 51.0773 160.341 50.8827 160.576 50.744C160.816 50.6053 161.106 50.536 161.448 50.536L161.448 51.288L161.256 51.288C160.44 51.288 160.032 51.7307 160.032 52.616L160.032 55L159.304 55L159.304 50.616L160.032 50.616L160.032 51.328ZM162.056 56.488L162.056 56.416C162.605 55.8507 163.021 55.192 163.304 54.44C163.592 53.688 163.736 52.8987 163.736 52.072C163.736 51.224 163.584 50.408 163.28 49.624C162.981 48.8347 162.533 48.16 161.936 47.6L161.936 47.528L162.696 47.528C163.256 48.0453 163.685 48.704 163.984 49.504C164.288 50.2987 164.44 51.1547 164.44 52.072C164.44 52.968 164.296 53.8027 164.008 54.576C163.725 55.3493 163.328 55.9867 162.816 56.488L162.056 56.488Z" fill="#606487"/>
<circle cx="63" cy="53" r="1" fill="#878DC5"/>
</svg>
