<svg width="269" height="130" viewBox="0 0 269 130" fill="none" xmlns="http://www.w3.org/2000/svg">
<path d="M4.23 37.45C4.87 36.8967 5.37333 36.4433 5.74 36.09C6.11333 35.73 6.42333 35.3567 6.67 34.97C6.91667 34.5833 7.04 34.1967 7.04 33.81C7.04 33.41 6.94333 33.0967 6.75 32.87C6.56333 32.6433 6.26667 32.53 5.86 32.53C5.46667 32.53 5.16 32.6567 4.94 32.91C4.72667 33.1567 4.61333 33.49 4.6 33.91H3.5C3.52 33.15 3.74667 32.57 4.18 32.17C4.62 31.7633 5.17667 31.56 5.85 31.56C6.57667 31.56 7.14333 31.76 7.55 32.16C7.96333 32.56 8.17 33.0933 8.17 33.76C8.17 34.24 8.04667 34.7033 7.8 35.15C7.56 35.59 7.27 35.9867 6.93 36.34C6.59667 36.6867 6.17 37.09 5.65 37.55L5.2 37.95H8.37V38.9H3.51V38.07L4.23 37.45ZM13.9915 32.59L11.2115 39H10.0615L12.8715 32.71H9.17148V31.74H13.9915V32.59ZM19.6672 32.69H16.3172V34.68C16.4572 34.4933 16.6639 34.3367 16.9372 34.21C17.2172 34.0833 17.5139 34.02 17.8272 34.02C18.3872 34.02 18.8405 34.14 19.1872 34.38C19.5405 34.62 19.7905 34.9233 19.9372 35.29C20.0905 35.6567 20.1672 36.0433 20.1672 36.45C20.1672 36.9433 20.0705 37.3833 19.8772 37.77C19.6905 38.15 19.4072 38.45 19.0272 38.67C18.6539 38.89 18.1939 39 17.6472 39C16.9205 39 16.3372 38.82 15.8972 38.46C15.4572 38.1 15.1939 37.6233 15.1072 37.03H16.2172C16.2905 37.3433 16.4539 37.5933 16.7072 37.78C16.9605 37.96 17.2772 38.05 17.6572 38.05C18.1305 38.05 18.4839 37.9067 18.7172 37.62C18.9572 37.3333 19.0772 36.9533 19.0772 36.48C19.0772 36 18.9572 35.6333 18.7172 35.38C18.4772 35.12 18.1239 34.99 17.6572 34.99C17.3305 34.99 17.0539 35.0733 16.8272 35.24C16.6072 35.4 16.4472 35.62 16.3472 35.9H15.2672V31.69H19.6672V32.69ZM29.8116 39H28.6716L25.2416 33.81V39H24.1016V32.04H25.2416L28.6716 37.22V32.04H29.8116V39ZM36.3586 36.11C36.3586 36.3167 36.3453 36.5033 36.3186 36.67H32.1086C32.1419 37.11 32.3053 37.4633 32.5986 37.73C32.8919 37.9967 33.2519 38.13 33.6786 38.13C34.2919 38.13 34.7253 37.8733 34.9786 37.36H36.2086C36.0419 37.8667 35.7386 38.2833 35.2986 38.61C34.8653 38.93 34.3253 39.09 33.6786 39.09C33.1519 39.09 32.6786 38.9733 32.2586 38.74C31.8453 38.5 31.5186 38.1667 31.2786 37.74C31.0453 37.3067 30.9286 36.8067 30.9286 36.24C30.9286 35.6733 31.0419 35.1767 31.2686 34.75C31.5019 34.3167 31.8253 33.9833 32.2386 33.75C32.6586 33.5167 33.1386 33.4 33.6786 33.4C34.1986 33.4 34.6619 33.5133 35.0686 33.74C35.4753 33.9667 35.7919 34.2867 36.0186 34.7C36.2453 35.1067 36.3586 35.5767 36.3586 36.11ZM35.1686 35.75C35.1619 35.33 35.0119 34.9933 34.7186 34.74C34.4253 34.4867 34.0619 34.36 33.6286 34.36C33.2353 34.36 32.8986 34.4867 32.6186 34.74C32.3386 34.9867 32.1719 35.3233 32.1186 35.75H35.1686ZM44.8805 33.49L43.1705 39H41.9705L40.8605 34.93L39.7505 39H38.5505L36.8305 33.49H37.9905L39.1405 37.92L40.3105 33.49H41.5005L42.6205 37.9L43.7605 33.49H44.8805ZM54.0401 39H52.9001L49.4701 33.81V39H48.3301V32.04H49.4701L52.9001 37.22V32.04H54.0401V39ZM57.9271 39.09C57.4071 39.09 56.9371 38.9733 56.5171 38.74C56.0971 38.5 55.7671 38.1667 55.5271 37.74C55.2871 37.3067 55.1671 36.8067 55.1671 36.24C55.1671 35.68 55.2904 35.1833 55.5371 34.75C55.7838 34.3167 56.1204 33.9833 56.5471 33.75C56.9738 33.5167 57.4504 33.4 57.9771 33.4C58.5038 33.4 58.9804 33.5167 59.4071 33.75C59.8338 33.9833 60.1704 34.3167 60.4171 34.75C60.6638 35.1833 60.7871 35.68 60.7871 36.24C60.7871 36.8 60.6604 37.2967 60.4071 37.73C60.1538 38.1633 59.8071 38.5 59.3671 38.74C58.9338 38.9733 58.4538 39.09 57.9271 39.09ZM57.9271 38.1C58.2204 38.1 58.4938 38.03 58.7471 37.89C59.0071 37.75 59.2171 37.54 59.3771 37.26C59.5371 36.98 59.6171 36.64 59.6171 36.24C59.6171 35.84 59.5404 35.5033 59.3871 35.23C59.2338 34.95 59.0304 34.74 58.7771 34.6C58.5238 34.46 58.2504 34.39 57.9571 34.39C57.6638 34.39 57.3904 34.46 57.1371 34.6C56.8904 34.74 56.6938 34.95 56.5471 35.23C56.4004 35.5033 56.3271 35.84 56.3271 36.24C56.3271 36.8333 56.4771 37.2933 56.7771 37.62C57.0838 37.94 57.4671 38.1 57.9271 38.1ZM63.0541 34.29C63.2207 34.01 63.4407 33.7933 63.7141 33.64C63.9941 33.48 64.3241 33.4 64.7041 33.4V34.58H64.4141C63.9674 34.58 63.6274 34.6933 63.3941 34.92C63.1674 35.1467 63.0541 35.54 63.0541 36.1V39H61.9141V33.49H63.0541V34.29ZM67.082 34.42V37.47C67.082 37.6767 67.1286 37.8267 67.222 37.92C67.322 38.0067 67.4886 38.05 67.722 38.05H68.422V39H67.522C67.0086 39 66.6153 38.88 66.342 38.64C66.0686 38.4 65.932 38.01 65.932 37.47V34.42H65.282V33.49H65.932V32.12H67.082V33.49H68.422V34.42H67.082ZM72.3227 33.4C72.7427 33.4 73.116 33.49 73.4427 33.67C73.776 33.85 74.036 34.1167 74.2227 34.47C74.416 34.8233 74.5127 35.25 74.5127 35.75V39H73.3827V35.92C73.3827 35.4267 73.2593 35.05 73.0127 34.79C72.766 34.5233 72.4293 34.39 72.0027 34.39C71.576 34.39 71.236 34.5233 70.9827 34.79C70.736 35.05 70.6127 35.4267 70.6127 35.92V39H69.4727V31.6H70.6127V34.13C70.806 33.8967 71.0493 33.7167 71.3427 33.59C71.6427 33.4633 71.9693 33.4 72.3227 33.4ZM7.36 54L5.76 51.22H4.89V54H3.75V47.05H6.15C6.68333 47.05 7.13333 47.1433 7.5 47.33C7.87333 47.5167 8.15 47.7667 8.33 48.08C8.51667 48.3933 8.61 48.7433 8.61 49.13C8.61 49.5833 8.47667 49.9967 8.21 50.37C7.95 50.7367 7.54667 50.9867 7 51.12L8.72 54H7.36ZM4.89 50.31H6.15C6.57667 50.31 6.89667 50.2033 7.11 49.99C7.33 49.7767 7.44 49.49 7.44 49.13C7.44 48.77 7.33333 48.49 7.12 48.29C6.90667 48.0833 6.58333 47.98 6.15 47.98H4.89V50.31ZM12.4584 54.09C11.9384 54.09 11.4684 53.9733 11.0484 53.74C10.6284 53.5 10.2984 53.1667 10.0584 52.74C9.81836 52.3067 9.69836 51.8067 9.69836 51.24C9.69836 50.68 9.82169 50.1833 10.0684 49.75C10.315 49.3167 10.6517 48.9833 11.0784 48.75C11.505 48.5167 11.9817 48.4 12.5084 48.4C13.035 48.4 13.5117 48.5167 13.9384 48.75C14.365 48.9833 14.7017 49.3167 14.9484 49.75C15.195 50.1833 15.3184 50.68 15.3184 51.24C15.3184 51.8 15.1917 52.2967 14.9384 52.73C14.685 53.1633 14.3384 53.5 13.8984 53.74C13.465 53.9733 12.985 54.09 12.4584 54.09ZM12.4584 53.1C12.7517 53.1 13.025 53.03 13.2784 52.89C13.5384 52.75 13.7484 52.54 13.9084 52.26C14.0684 51.98 14.1484 51.64 14.1484 51.24C14.1484 50.84 14.0717 50.5033 13.9184 50.23C13.765 49.95 13.5617 49.74 13.3084 49.6C13.055 49.46 12.7817 49.39 12.4884 49.39C12.195 49.39 11.9217 49.46 11.6684 49.6C11.4217 49.74 11.225 49.95 11.0784 50.23C10.9317 50.5033 10.8584 50.84 10.8584 51.24C10.8584 51.8333 11.0084 52.2933 11.3084 52.62C11.615 52.94 11.9984 53.1 12.4584 53.1ZM16.0653 51.22C16.0653 50.6667 16.1786 50.1767 16.4053 49.75C16.6386 49.3233 16.952 48.9933 17.3453 48.76C17.7453 48.52 18.1853 48.4 18.6653 48.4C19.0986 48.4 19.4753 48.4867 19.7953 48.66C20.122 48.8267 20.382 49.0367 20.5753 49.29V48.49H21.7253V54H20.5753V53.18C20.382 53.44 20.1186 53.6567 19.7853 53.83C19.452 54.0033 19.072 54.09 18.6453 54.09C18.172 54.09 17.7386 53.97 17.3453 53.73C16.952 53.4833 16.6386 53.1433 16.4053 52.71C16.1786 52.27 16.0653 51.7733 16.0653 51.22ZM20.5753 51.24C20.5753 50.86 20.4953 50.53 20.3353 50.25C20.182 49.97 19.9786 49.7567 19.7253 49.61C19.472 49.4633 19.1986 49.39 18.9053 49.39C18.612 49.39 18.3386 49.4633 18.0853 49.61C17.832 49.75 17.6253 49.96 17.4653 50.24C17.312 50.5133 17.2353 50.84 17.2353 51.22C17.2353 51.6 17.312 51.9333 17.4653 52.22C17.6253 52.5067 17.832 52.7267 18.0853 52.88C18.3453 53.0267 18.6186 53.1 18.9053 53.1C19.1986 53.1 19.472 53.0267 19.7253 52.88C19.9786 52.7333 20.182 52.52 20.3353 52.24C20.4953 51.9533 20.5753 51.62 20.5753 51.24ZM22.8427 51.22C22.8427 50.6667 22.956 50.1767 23.1827 49.75C23.416 49.3233 23.7293 48.9933 24.1227 48.76C24.5227 48.52 24.966 48.4 25.4527 48.4C25.8127 48.4 26.166 48.48 26.5127 48.64C26.866 48.7933 27.146 49 27.3527 49.26V46.6H28.5027V54H27.3527V53.17C27.166 53.4367 26.906 53.6567 26.5727 53.83C26.246 54.0033 25.8693 54.09 25.4427 54.09C24.9627 54.09 24.5227 53.97 24.1227 53.73C23.7293 53.4833 23.416 53.1433 23.1827 52.71C22.956 52.27 22.8427 51.7733 22.8427 51.22ZM27.3527 51.24C27.3527 50.86 27.2727 50.53 27.1127 50.25C26.9593 49.97 26.756 49.7567 26.5027 49.61C26.2493 49.4633 25.976 49.39 25.6827 49.39C25.3893 49.39 25.116 49.4633 24.8627 49.61C24.6093 49.75 24.4027 49.96 24.2427 50.24C24.0893 50.5133 24.0127 50.84 24.0127 51.22C24.0127 51.6 24.0893 51.9333 24.2427 52.22C24.4027 52.5067 24.6093 52.7267 24.8627 52.88C25.1227 53.0267 25.396 53.1 25.6827 53.1C25.976 53.1 26.2493 53.0267 26.5027 52.88C26.756 52.7333 26.9593 52.52 27.1127 52.24C27.2727 51.9533 27.3527 51.62 27.3527 51.24ZM31.25 52.63L30.04 55.39H29.3L30.01 52.63H31.25ZM35.9838 53.08H38.3338V54H34.8438V47.05H35.9838V53.08ZM41.6771 54.09C41.1571 54.09 40.6871 53.9733 40.2671 53.74C39.8471 53.5 39.5171 53.1667 39.2771 52.74C39.0371 52.3067 38.9171 51.8067 38.9171 51.24C38.9171 50.68 39.0404 50.1833 39.2871 49.75C39.5338 49.3167 39.8704 48.9833 40.2971 48.75C40.7238 48.5167 41.2004 48.4 41.7271 48.4C42.2538 48.4 42.7304 48.5167 43.1571 48.75C43.5838 48.9833 43.9204 49.3167 44.1671 49.75C44.4138 50.1833 44.5371 50.68 44.5371 51.24C44.5371 51.8 44.4104 52.2967 44.1571 52.73C43.9038 53.1633 43.5571 53.5 43.1171 53.74C42.6838 53.9733 42.2038 54.09 41.6771 54.09ZM41.6771 53.1C41.9704 53.1 42.2438 53.03 42.4971 52.89C42.7571 52.75 42.9671 52.54 43.1271 52.26C43.2871 51.98 43.3671 51.64 43.3671 51.24C43.3671 50.84 43.2904 50.5033 43.1371 50.23C42.9838 49.95 42.7804 49.74 42.5271 49.6C42.2738 49.46 42.0004 49.39 41.7071 49.39C41.4138 49.39 41.1404 49.46 40.8871 49.6C40.6404 49.74 40.4438 49.95 40.2971 50.23C40.1504 50.5033 40.0771 50.84 40.0771 51.24C40.0771 51.8333 40.2271 52.2933 40.5271 52.62C40.8338 52.94 41.2171 53.1 41.6771 53.1ZM48.4441 48.4C48.8774 48.4 49.2641 48.49 49.6041 48.67C49.9507 48.85 50.2207 49.1167 50.4141 49.47C50.6074 49.8233 50.7041 50.25 50.7041 50.75V54H49.5741V50.92C49.5741 50.4267 49.4507 50.05 49.2041 49.79C48.9574 49.5233 48.6207 49.39 48.1941 49.39C47.7674 49.39 47.4274 49.5233 47.1741 49.79C46.9274 50.05 46.8041 50.4267 46.8041 50.92V54H45.6641V48.49H46.8041V49.12C46.9907 48.8933 47.2274 48.7167 47.5141 48.59C47.8074 48.4633 48.1174 48.4 48.4441 48.4ZM51.7782 51.22C51.7782 50.6667 51.8915 50.1767 52.1182 49.75C52.3515 49.3233 52.6649 48.9933 53.0582 48.76C53.4582 48.52 53.9015 48.4 54.3882 48.4C54.7482 48.4 55.1015 48.48 55.4482 48.64C55.8015 48.7933 56.0815 49 56.2882 49.26V46.6H57.4382V54H56.2882V53.17C56.1015 53.4367 55.8415 53.6567 55.5082 53.83C55.1815 54.0033 54.8049 54.09 54.3782 54.09C53.8982 54.09 53.4582 53.97 53.0582 53.73C52.6649 53.4833 52.3515 53.1433 52.1182 52.71C51.8915 52.27 51.7782 51.7733 51.7782 51.22ZM56.2882 51.24C56.2882 50.86 56.2082 50.53 56.0482 50.25C55.8949 49.97 55.6915 49.7567 55.4382 49.61C55.1849 49.4633 54.9115 49.39 54.6182 49.39C54.3249 49.39 54.0515 49.4633 53.7982 49.61C53.5449 49.75 53.3382 49.96 53.1782 50.24C53.0249 50.5133 52.9482 50.84 52.9482 51.22C52.9482 51.6 53.0249 51.9333 53.1782 52.22C53.3382 52.5067 53.5449 52.7267 53.7982 52.88C54.0582 53.0267 54.3315 53.1 54.6182 53.1C54.9115 53.1 55.1849 53.0267 55.4382 52.88C55.6915 52.7333 55.8949 52.52 56.0482 52.24C56.2082 51.9533 56.2882 51.62 56.2882 51.24ZM61.3255 54.09C60.8055 54.09 60.3355 53.9733 59.9155 53.74C59.4955 53.5 59.1655 53.1667 58.9255 52.74C58.6855 52.3067 58.5655 51.8067 58.5655 51.24C58.5655 50.68 58.6889 50.1833 58.9355 49.75C59.1822 49.3167 59.5189 48.9833 59.9455 48.75C60.3722 48.5167 60.8489 48.4 61.3755 48.4C61.9022 48.4 62.3789 48.5167 62.8055 48.75C63.2322 48.9833 63.5689 49.3167 63.8155 49.75C64.0622 50.1833 64.1855 50.68 64.1855 51.24C64.1855 51.8 64.0589 52.2967 63.8055 52.73C63.5522 53.1633 63.2055 53.5 62.7655 53.74C62.3322 53.9733 61.8522 54.09 61.3255 54.09ZM61.3255 53.1C61.6189 53.1 61.8922 53.03 62.1455 52.89C62.4055 52.75 62.6155 52.54 62.7755 52.26C62.9355 51.98 63.0155 51.64 63.0155 51.24C63.0155 50.84 62.9389 50.5033 62.7855 50.23C62.6322 49.95 62.4289 49.74 62.1755 49.6C61.9222 49.46 61.6489 49.39 61.3555 49.39C61.0622 49.39 60.7889 49.46 60.5355 49.6C60.2889 49.74 60.0922 49.95 59.9455 50.23C59.7989 50.5033 59.7255 50.84 59.7255 51.24C59.7255 51.8333 59.8755 52.2933 60.1755 52.62C60.4822 52.94 60.8655 53.1 61.3255 53.1ZM68.0925 48.4C68.5258 48.4 68.9125 48.49 69.2525 48.67C69.5992 48.85 69.8692 49.1167 70.0625 49.47C70.2558 49.8233 70.3525 50.25 70.3525 50.75V54H69.2225V50.92C69.2225 50.4267 69.0992 50.05 68.8525 49.79C68.6058 49.5233 68.2692 49.39 67.8425 49.39C67.4158 49.39 67.0758 49.5233 66.8225 49.79C66.5758 50.05 66.4525 50.4267 66.4525 50.92V54H65.3125V48.49H66.4525V49.12C66.6392 48.8933 66.8758 48.7167 67.1625 48.59C67.4558 48.4633 67.7658 48.4 68.0925 48.4Z" fill="#41477A"/>
<path d="M6.256 20.112C6.57067 20.1707 6.83733 20.3307 7.056 20.592C7.27467 20.8533 7.384 21.1573 7.384 21.504C7.384 21.7867 7.312 22.0427 7.168 22.272C7.02933 22.496 6.824 22.6747 6.552 22.808C6.28 22.936 5.95467 23 5.576 23H3.64V17.408H5.52C6.08533 17.408 6.51467 17.5387 6.808 17.8C7.10667 18.0613 7.256 18.4 7.256 18.816C7.256 19.1627 7.16267 19.4453 6.976 19.664C6.78933 19.8773 6.54933 20.0267 6.256 20.112ZM4.2 19.88H5.504C5.88267 19.88 6.17333 19.792 6.376 19.616C6.584 19.4347 6.688 19.1867 6.688 18.872C6.688 18.5627 6.584 18.32 6.376 18.144C6.17333 17.968 5.87467 17.88 5.48 17.88H4.2V19.88ZM5.536 22.528C5.94133 22.528 6.256 22.432 6.48 22.24C6.70933 22.048 6.824 21.784 6.824 21.448C6.824 21.112 6.704 20.8453 6.464 20.648C6.22933 20.4453 5.912 20.344 5.512 20.344H4.2V22.528H5.536ZM8.69344 17.808C8.58144 17.808 8.48544 17.768 8.40544 17.688C8.32544 17.608 8.28544 17.5093 8.28544 17.392C8.28544 17.2747 8.32544 17.1787 8.40544 17.104C8.48544 17.024 8.58144 16.984 8.69344 16.984C8.80544 16.984 8.90144 17.024 8.98144 17.104C9.06144 17.1787 9.10144 17.2747 9.10144 17.392C9.10144 17.5093 9.06144 17.608 8.98144 17.688C8.90144 17.768 8.80544 17.808 8.69344 17.808ZM8.97344 18.632V23H8.41344V18.632H8.97344ZM10.8016 17.08V23H10.2416V17.08H10.8016ZM12.6297 17.08V23H12.0697V17.08H12.6297ZM14.1778 17.808C14.0658 17.808 13.9698 17.768 13.8898 17.688C13.8098 17.608 13.7698 17.5093 13.7698 17.392C13.7698 17.2747 13.8098 17.1787 13.8898 17.104C13.9698 17.024 14.0658 16.984 14.1778 16.984C14.2898 16.984 14.3858 17.024 14.4658 17.104C14.5458 17.1787 14.5858 17.2747 14.5858 17.392C14.5858 17.5093 14.5458 17.608 14.4658 17.688C14.3858 17.768 14.2898 17.808 14.1778 17.808ZM14.4578 18.632V23H13.8978V18.632H14.4578ZM17.7739 18.552C18.2966 18.552 18.7233 18.7147 19.0539 19.04C19.3846 19.36 19.5499 19.8267 19.5499 20.44V23H18.9979V20.504C18.9979 20.0293 18.8779 19.6667 18.6379 19.416C18.4033 19.1653 18.0806 19.04 17.6699 19.04C17.2486 19.04 16.9126 19.1733 16.6619 19.44C16.4113 19.7067 16.2859 20.0987 16.2859 20.616V23H15.7259V18.632H16.2859V19.376C16.4246 19.1093 16.6246 18.9067 16.8859 18.768C17.1473 18.624 17.4433 18.552 17.7739 18.552ZM22.6204 18.568C23.0311 18.568 23.3884 18.664 23.6924 18.856C23.9964 19.048 24.2151 19.2907 24.3484 19.584V18.632H24.9084V23.112C24.9084 23.512 24.8204 23.8667 24.6444 24.176C24.4738 24.4853 24.2338 24.7227 23.9244 24.888C23.6151 25.0587 23.2631 25.144 22.8684 25.144C22.3084 25.144 21.8418 25.0107 21.4684 24.744C21.1004 24.4773 20.8711 24.1147 20.7804 23.656H21.3324C21.4284 23.96 21.6098 24.2027 21.8764 24.384C22.1484 24.5653 22.4791 24.656 22.8684 24.656C23.1511 24.656 23.4044 24.5947 23.6284 24.472C23.8524 24.3547 24.0284 24.1787 24.1564 23.944C24.2844 23.7093 24.3484 23.432 24.3484 23.112V22.032C24.2098 22.3307 23.9884 22.5787 23.6844 22.776C23.3858 22.968 23.0311 23.064 22.6204 23.064C22.2204 23.064 21.8604 22.9707 21.5404 22.784C21.2258 22.5973 20.9778 22.3333 20.7964 21.992C20.6204 21.6507 20.5324 21.256 20.5324 20.808C20.5324 20.36 20.6204 19.968 20.7964 19.632C20.9778 19.2907 21.2258 19.0293 21.5404 18.848C21.8604 18.6613 22.2204 18.568 22.6204 18.568ZM24.3484 20.816C24.3484 20.464 24.2764 20.1547 24.1324 19.888C23.9884 19.6213 23.7911 19.416 23.5404 19.272C23.2951 19.128 23.0231 19.056 22.7244 19.056C22.4151 19.056 22.1378 19.1253 21.8924 19.264C21.6471 19.4027 21.4524 19.6053 21.3084 19.872C21.1698 20.1333 21.1004 20.4453 21.1004 20.808C21.1004 21.1653 21.1698 21.48 21.3084 21.752C21.4524 22.0187 21.6471 22.224 21.8924 22.368C22.1378 22.5067 22.4151 22.576 22.7244 22.576C23.0231 22.576 23.2951 22.504 23.5404 22.36C23.7911 22.216 23.9884 22.0107 24.1324 21.744C24.2764 21.4773 24.3484 21.168 24.3484 20.816ZM31.9582 19.016C31.9582 19.496 31.8009 19.8827 31.4862 20.176C31.1715 20.4693 30.6995 20.616 30.0702 20.616H28.9422V23H28.3822V17.408H30.0702C30.6942 17.408 31.1635 17.5547 31.4782 17.848C31.7982 18.1413 31.9582 18.5307 31.9582 19.016ZM30.0702 20.136C30.9449 20.136 31.3822 19.7627 31.3822 19.016C31.3822 18.6427 31.2782 18.36 31.0702 18.168C30.8622 17.976 30.5289 17.88 30.0702 17.88H28.9422V20.136H30.0702ZM33.4578 17.08V23H32.8978V17.08H33.4578ZM34.4699 20.808C34.4699 20.36 34.5579 19.968 34.7339 19.632C34.9153 19.2907 35.1633 19.0293 35.4779 18.848C35.7979 18.6613 36.1579 18.568 36.5579 18.568C36.9739 18.568 37.3313 18.664 37.6299 18.856C37.9339 19.048 38.1526 19.2933 38.2859 19.592V18.632H38.8459V23H38.2859V22.032C38.1473 22.3307 37.9259 22.5787 37.6219 22.776C37.3233 22.968 36.9659 23.064 36.5499 23.064C36.1553 23.064 35.7979 22.9707 35.4779 22.784C35.1633 22.5973 34.9153 22.3333 34.7339 21.992C34.5579 21.6507 34.4699 21.256 34.4699 20.808ZM38.2859 20.816C38.2859 20.464 38.2139 20.1547 38.0699 19.888C37.9259 19.6213 37.7286 19.416 37.4779 19.272C37.2326 19.128 36.9606 19.056 36.6619 19.056C36.3526 19.056 36.0753 19.1253 35.8299 19.264C35.5846 19.4027 35.3899 19.6053 35.2459 19.872C35.1073 20.1333 35.0379 20.4453 35.0379 20.808C35.0379 21.1653 35.1073 21.48 35.2459 21.752C35.3899 22.0187 35.5846 22.224 35.8299 22.368C36.0753 22.5067 36.3526 22.576 36.6619 22.576C36.9606 22.576 37.2326 22.504 37.4779 22.36C37.7286 22.216 37.9259 22.0107 38.0699 21.744C38.2139 21.4773 38.2859 21.168 38.2859 20.816ZM42.1724 18.552C42.695 18.552 43.1217 18.7147 43.4524 19.04C43.783 19.36 43.9484 19.8267 43.9484 20.44V23H43.3964V20.504C43.3964 20.0293 43.2764 19.6667 43.0364 19.416C42.8017 19.1653 42.479 19.04 42.0684 19.04C41.647 19.04 41.311 19.1733 41.0604 19.44C40.8097 19.7067 40.6844 20.0987 40.6844 20.616V23H40.1244V18.632H40.6844V19.376C40.823 19.1093 41.023 18.9067 41.2844 18.768C41.5457 18.624 41.8417 18.552 42.1724 18.552Z" fill="#6F7399"/>
<path d="M44.147 103.02C44.147 103.353 44.0637 103.667 43.897 103.96C43.737 104.253 43.497 104.5 43.177 104.7C42.8637 104.9 42.4904 105.02 42.057 105.06V105.87H41.407V105.06C40.7804 105 40.2737 104.803 39.887 104.47C39.5004 104.137 39.307 103.697 39.307 103.15H40.527C40.547 103.41 40.6304 103.627 40.777 103.8C40.9237 103.967 41.1337 104.073 41.407 104.12V101.92C40.9604 101.807 40.597 101.693 40.317 101.58C40.037 101.46 39.797 101.273 39.597 101.02C39.4037 100.767 39.307 100.42 39.307 99.98C39.307 99.4267 39.5004 98.97 39.887 98.61C40.2737 98.2433 40.7804 98.03 41.407 97.97V97.16H42.057V97.97C42.6437 98.0233 43.1137 98.21 43.467 98.53C43.827 98.8433 44.0304 99.2767 44.077 99.83H42.857C42.837 99.6233 42.757 99.44 42.617 99.28C42.477 99.1133 42.2904 99 42.057 98.94V101.1C42.5037 101.207 42.867 101.32 43.147 101.44C43.427 101.553 43.6637 101.737 43.857 101.99C44.0504 102.237 44.147 102.58 44.147 103.02ZM40.467 99.92C40.467 100.193 40.547 100.407 40.707 100.56C40.8737 100.713 41.107 100.837 41.407 100.93V98.91C41.1204 98.9433 40.8904 99.0467 40.717 99.22C40.5504 99.3933 40.467 99.6267 40.467 99.92ZM42.057 104.12C42.3504 104.073 42.5804 103.957 42.747 103.77C42.9137 103.577 42.997 103.347 42.997 103.08C42.997 102.813 42.9137 102.607 42.747 102.46C42.587 102.307 42.357 102.183 42.057 102.09V104.12ZM46.4409 103.45C47.0809 102.897 47.5843 102.443 47.9509 102.09C48.3243 101.73 48.6343 101.357 48.8809 100.97C49.1276 100.583 49.2509 100.197 49.2509 99.81C49.2509 99.41 49.1543 99.0967 48.9609 98.87C48.7743 98.6433 48.4776 98.53 48.0709 98.53C47.6776 98.53 47.3709 98.6567 47.1509 98.91C46.9376 99.1567 46.8243 99.49 46.8109 99.91H45.7109C45.7309 99.15 45.9576 98.57 46.3909 98.17C46.8309 97.7633 47.3876 97.56 48.0609 97.56C48.7876 97.56 49.3543 97.76 49.7609 98.16C50.1743 98.56 50.3809 99.0933 50.3809 99.76C50.3809 100.24 50.2576 100.703 50.0109 101.15C49.7709 101.59 49.4809 101.987 49.1409 102.34C48.8076 102.687 48.3809 103.09 47.8609 103.55L47.4109 103.95H50.5809V104.9H45.7209V104.07L46.4409 103.45ZM56.2824 98.69H52.9324V100.68C53.0724 100.493 53.2791 100.337 53.5524 100.21C53.8324 100.083 54.1291 100.02 54.4424 100.02C55.0024 100.02 55.4558 100.14 55.8024 100.38C56.1558 100.62 56.4058 100.923 56.5524 101.29C56.7058 101.657 56.7824 102.043 56.7824 102.45C56.7824 102.943 56.6858 103.383 56.4924 103.77C56.3058 104.15 56.0224 104.45 55.6424 104.67C55.2691 104.89 54.8091 105 54.2624 105C53.5358 105 52.9524 104.82 52.5124 104.46C52.0724 104.1 51.8091 103.623 51.7224 103.03H52.8324C52.9058 103.343 53.0691 103.593 53.3224 103.78C53.5758 103.96 53.8924 104.05 54.2724 104.05C54.7458 104.05 55.0991 103.907 55.3324 103.62C55.5724 103.333 55.6924 102.953 55.6924 102.48C55.6924 102 55.5724 101.633 55.3324 101.38C55.0924 101.12 54.7391 100.99 54.2724 100.99C53.9458 100.99 53.6691 101.073 53.4424 101.24C53.2224 101.4 53.0624 101.62 52.9624 101.9H51.8824V97.69H56.2824V98.69ZM57.9691 101.26C57.9691 100.107 58.1625 99.2067 58.5491 98.56C58.9425 97.9067 59.6158 97.58 60.5691 97.58C61.5225 97.58 62.1925 97.9067 62.5791 98.56C62.9725 99.2067 63.1691 100.107 63.1691 101.26C63.1691 102.427 62.9725 103.34 62.5791 104C62.1925 104.653 61.5225 104.98 60.5691 104.98C59.6158 104.98 58.9425 104.653 58.5491 104C58.1625 103.34 57.9691 102.427 57.9691 101.26ZM62.0491 101.26C62.0491 100.72 62.0125 100.263 61.9391 99.89C61.8725 99.5167 61.7325 99.2133 61.5191 98.98C61.3058 98.74 60.9891 98.62 60.5691 98.62C60.1491 98.62 59.8325 98.74 59.6191 98.98C59.4058 99.2133 59.2625 99.5167 59.1891 99.89C59.1225 100.263 59.0891 100.72 59.0891 101.26C59.0891 101.82 59.1225 102.29 59.1891 102.67C59.2558 103.05 59.3958 103.357 59.6091 103.59C59.8291 103.823 60.1491 103.94 60.5691 103.94C60.9891 103.94 61.3058 103.823 61.5191 103.59C61.7391 103.357 61.8825 103.05 61.9491 102.67C62.0158 102.29 62.0491 101.82 62.0491 101.26ZM64.9854 105.07C64.7787 105.07 64.6054 105 64.4654 104.86C64.3254 104.72 64.2554 104.547 64.2554 104.34C64.2554 104.133 64.3254 103.96 64.4654 103.82C64.6054 103.68 64.7787 103.61 64.9854 103.61C65.1854 103.61 65.3554 103.68 65.4954 103.82C65.6354 103.96 65.7054 104.133 65.7054 104.34C65.7054 104.547 65.6354 104.72 65.4954 104.86C65.3554 105 65.1854 105.07 64.9854 105.07ZM66.7875 101.26C66.7875 100.107 66.9808 99.2067 67.3675 98.56C67.7608 97.9067 68.4342 97.58 69.3875 97.58C70.3408 97.58 71.0108 97.9067 71.3975 98.56C71.7908 99.2067 71.9875 100.107 71.9875 101.26C71.9875 102.427 71.7908 103.34 71.3975 104C71.0108 104.653 70.3408 104.98 69.3875 104.98C68.4342 104.98 67.7608 104.653 67.3675 104C66.9808 103.34 66.7875 102.427 66.7875 101.26ZM70.8675 101.26C70.8675 100.72 70.8308 100.263 70.7575 99.89C70.6908 99.5167 70.5508 99.2133 70.3375 98.98C70.1242 98.74 69.8075 98.62 69.3875 98.62C68.9675 98.62 68.6508 98.74 68.4375 98.98C68.2242 99.2133 68.0808 99.5167 68.0075 99.89C67.9408 100.263 67.9075 100.72 67.9075 101.26C67.9075 101.82 67.9408 102.29 68.0075 102.67C68.0742 103.05 68.2142 103.357 68.4275 103.59C68.6475 103.823 68.9675 103.94 69.3875 103.94C69.8075 103.94 70.1242 103.823 70.3375 103.59C70.5575 103.357 70.7008 103.05 70.7675 102.67C70.8342 102.29 70.8675 101.82 70.8675 101.26ZM73.1938 101.26C73.1938 100.107 73.3871 99.2067 73.7738 98.56C74.1671 97.9067 74.8404 97.58 75.7938 97.58C76.7471 97.58 77.4171 97.9067 77.8038 98.56C78.1971 99.2067 78.3938 100.107 78.3938 101.26C78.3938 102.427 78.1971 103.34 77.8038 104C77.4171 104.653 76.7471 104.98 75.7938 104.98C74.8404 104.98 74.1671 104.653 73.7738 104C73.3871 103.34 73.1938 102.427 73.1938 101.26ZM77.2738 101.26C77.2738 100.72 77.2371 100.263 77.1638 99.89C77.0971 99.5167 76.9571 99.2133 76.7438 98.98C76.5304 98.74 76.2138 98.62 75.7938 98.62C75.3738 98.62 75.0571 98.74 74.8438 98.98C74.6304 99.2133 74.4871 99.5167 74.4138 99.89C74.3471 100.263 74.3138 100.72 74.3138 101.26C74.3138 101.82 74.3471 102.29 74.4138 102.67C74.4804 103.05 74.6204 103.357 74.8338 103.59C75.0538 103.823 75.3738 103.94 75.7938 103.94C76.2138 103.94 76.5304 103.823 76.7438 103.59C76.9638 103.357 77.1071 103.05 77.1738 102.67C77.2404 102.29 77.2738 101.82 77.2738 101.26Z" fill="#41477A"/>
<path d="M2.75788 105.056C2.38988 105.056 2.06454 104.992 1.78188 104.864C1.50454 104.736 1.28588 104.557 1.12588 104.328C0.965875 104.099 0.880542 103.843 0.869875 103.56H1.46188C1.48854 103.832 1.60854 104.072 1.82188 104.28C2.03521 104.483 2.34721 104.584 2.75788 104.584C3.13654 104.584 3.43521 104.488 3.65388 104.296C3.87788 104.099 3.98988 103.851 3.98988 103.552C3.98988 103.312 3.92854 103.12 3.80588 102.976C3.68321 102.827 3.53121 102.717 3.34988 102.648C3.16854 102.573 2.91788 102.493 2.59788 102.408C2.22454 102.307 1.92854 102.208 1.70988 102.112C1.49121 102.016 1.30454 101.867 1.14988 101.664C0.995208 101.461 0.917875 101.187 0.917875 100.84C0.917875 100.552 0.992542 100.296 1.14188 100.072C1.29121 99.8427 1.50188 99.664 1.77388 99.536C2.04588 99.408 2.35788 99.344 2.70988 99.344C3.22721 99.344 3.64321 99.472 3.95788 99.728C4.27788 99.9787 4.46188 100.304 4.50988 100.704H3.90188C3.86454 100.475 3.73921 100.272 3.52588 100.096C3.31254 99.9147 3.02454 99.824 2.66188 99.824C2.32588 99.824 2.04588 99.9147 1.82188 100.096C1.59788 100.272 1.48588 100.515 1.48588 100.824C1.48588 101.059 1.54721 101.248 1.66988 101.392C1.79254 101.536 1.94454 101.645 2.12588 101.72C2.31254 101.795 2.56321 101.875 2.87788 101.96C3.24054 102.061 3.53388 102.163 3.75788 102.264C3.98188 102.36 4.17121 102.509 4.32588 102.712C4.48054 102.915 4.55788 103.187 4.55788 103.528C4.55788 103.789 4.48854 104.037 4.34988 104.272C4.21121 104.507 4.00588 104.696 3.73388 104.84C3.46188 104.984 3.13654 105.056 2.75788 105.056ZM9.424 100.632V105H8.864V104.232C8.736 104.504 8.53867 104.712 8.272 104.856C8.00533 105 7.70667 105.072 7.376 105.072C6.85333 105.072 6.42667 104.912 6.096 104.592C5.76533 104.267 5.6 103.797 5.6 103.184V100.632H6.152V103.12C6.152 103.595 6.26933 103.957 6.504 104.208C6.744 104.459 7.06933 104.584 7.48 104.584C7.90133 104.584 8.23733 104.451 8.488 104.184C8.73867 103.917 8.864 103.525 8.864 103.008V100.632H9.424ZM11.2545 101.6C11.3985 101.296 11.6198 101.048 11.9185 100.856C12.2225 100.664 12.5798 100.568 12.9905 100.568C13.3905 100.568 13.7478 100.661 14.0625 100.848C14.3772 101.029 14.6225 101.291 14.7985 101.632C14.9798 101.968 15.0705 102.36 15.0705 102.808C15.0705 103.256 14.9798 103.651 14.7985 103.992C14.6225 104.333 14.3745 104.597 14.0545 104.784C13.7398 104.971 13.3852 105.064 12.9905 105.064C12.5745 105.064 12.2145 104.971 11.9105 104.784C11.6118 104.592 11.3932 104.344 11.2545 104.04V105H10.7025V99.08H11.2545V101.6ZM14.5025 102.808C14.5025 102.445 14.4305 102.133 14.2865 101.872C14.1478 101.605 13.9558 101.403 13.7105 101.264C13.4652 101.125 13.1878 101.056 12.8785 101.056C12.5798 101.056 12.3052 101.128 12.0545 101.272C11.8092 101.416 11.6145 101.621 11.4705 101.888C11.3265 102.155 11.2545 102.464 11.2545 102.816C11.2545 103.168 11.3265 103.477 11.4705 103.744C11.6145 104.011 11.8092 104.216 12.0545 104.36C12.3052 104.504 12.5798 104.576 12.8785 104.576C13.1878 104.576 13.4652 104.507 13.7105 104.368C13.9558 104.224 14.1478 104.019 14.2865 103.752C14.4305 103.48 14.5025 103.165 14.5025 102.808ZM16.8289 101.104V103.816C16.8289 104.083 16.8796 104.267 16.9809 104.368C17.0823 104.469 17.2609 104.52 17.5169 104.52H18.0289V105H17.4289C17.0343 105 16.7409 104.909 16.5489 104.728C16.3569 104.541 16.2609 104.237 16.2609 103.816V101.104H15.6529V100.632H16.2609V99.536H16.8289V100.632H18.0289V101.104H16.8289ZM20.8645 105.064C20.4538 105.064 20.0832 104.973 19.7525 104.792C19.4272 104.605 19.1685 104.344 18.9765 104.008C18.7898 103.667 18.6965 103.269 18.6965 102.816C18.6965 102.363 18.7925 101.968 18.9845 101.632C19.1765 101.291 19.4378 101.029 19.7685 100.848C20.0992 100.661 20.4698 100.568 20.8805 100.568C21.2912 100.568 21.6618 100.661 21.9925 100.848C22.3285 101.029 22.5898 101.291 22.7765 101.632C22.9685 101.968 23.0645 102.363 23.0645 102.816C23.0645 103.264 22.9685 103.659 22.7765 104C22.5845 104.341 22.3205 104.605 21.9845 104.792C21.6485 104.973 21.2752 105.064 20.8645 105.064ZM20.8645 104.576C21.1525 104.576 21.4192 104.512 21.6645 104.384C21.9098 104.251 22.1072 104.053 22.2565 103.792C22.4112 103.525 22.4885 103.2 22.4885 102.816C22.4885 102.432 22.4138 102.109 22.2645 101.848C22.1152 101.581 21.9178 101.384 21.6725 101.256C21.4272 101.123 21.1605 101.056 20.8725 101.056C20.5845 101.056 20.3178 101.123 20.0725 101.256C19.8272 101.384 19.6298 101.581 19.4805 101.848C19.3365 102.109 19.2645 102.432 19.2645 102.816C19.2645 103.2 19.3365 103.525 19.4805 103.792C19.6298 104.053 19.8245 104.251 20.0645 104.384C20.3098 104.512 20.5765 104.576 20.8645 104.576ZM24.8133 101.104V103.816C24.8133 104.083 24.864 104.267 24.9653 104.368C25.0666 104.469 25.2453 104.52 25.5013 104.52H26.0133V105H25.4133C25.0186 105 24.7253 104.909 24.5333 104.728C24.3413 104.541 24.2453 104.237 24.2453 103.816V101.104H23.6373V100.632H24.2453V99.536H24.8133V100.632H26.0133V101.104H24.8133ZM26.6809 102.808C26.6809 102.36 26.7689 101.968 26.9449 101.632C27.1262 101.291 27.3742 101.029 27.6889 100.848C28.0089 100.661 28.3689 100.568 28.7689 100.568C29.1849 100.568 29.5422 100.664 29.8409 100.856C30.1449 101.048 30.3635 101.293 30.4969 101.592V100.632H31.0569V105H30.4969V104.032C30.3582 104.331 30.1369 104.579 29.8329 104.776C29.5342 104.968 29.1769 105.064 28.7609 105.064C28.3662 105.064 28.0089 104.971 27.6889 104.784C27.3742 104.597 27.1262 104.333 26.9449 103.992C26.7689 103.651 26.6809 103.256 26.6809 102.808ZM30.4969 102.816C30.4969 102.464 30.4249 102.155 30.2809 101.888C30.1369 101.621 29.9395 101.416 29.6889 101.272C29.4435 101.128 29.1715 101.056 28.8729 101.056C28.5635 101.056 28.2862 101.125 28.0409 101.264C27.7955 101.403 27.6009 101.605 27.4569 101.872C27.3182 102.133 27.2489 102.445 27.2489 102.808C27.2489 103.165 27.3182 103.48 27.4569 103.752C27.6009 104.019 27.7955 104.224 28.0409 104.368C28.2862 104.507 28.5635 104.576 28.8729 104.576C29.1715 104.576 29.4435 104.504 29.6889 104.36C29.9395 104.216 30.1369 104.011 30.2809 103.744C30.4249 103.477 30.4969 103.168 30.4969 102.816ZM32.8953 99.08V105H32.3353V99.08H32.8953ZM34.2594 105.04C34.1421 105.04 34.0434 105 33.9634 104.92C33.8888 104.84 33.8514 104.741 33.8514 104.624C33.8514 104.507 33.8888 104.411 33.9634 104.336C34.0434 104.256 34.1421 104.216 34.2594 104.216C34.3714 104.216 34.4648 104.256 34.5394 104.336C34.6194 104.411 34.6594 104.507 34.6594 104.624C34.6594 104.741 34.6194 104.84 34.5394 104.92C34.4648 105 34.3714 105.04 34.2594 105.04ZM34.2594 101.56C34.1421 101.56 34.0434 101.52 33.9634 101.44C33.8888 101.36 33.8514 101.261 33.8514 101.144C33.8514 101.027 33.8888 100.931 33.9634 100.856C34.0434 100.776 34.1421 100.736 34.2594 100.736C34.3714 100.736 34.4648 100.776 34.5394 100.856C34.6194 100.931 34.6594 101.027 34.6594 101.144C34.6594 101.261 34.6194 101.36 34.5394 101.44C34.4648 101.52 34.3714 101.56 34.2594 101.56Z" fill="#6F7399"/>
<path d="M50.5533 124.02C50.5533 124.353 50.4699 124.667 50.3033 124.96C50.1433 125.253 49.9033 125.5 49.5833 125.7C49.2699 125.9 48.8966 126.02 48.4633 126.06V126.87H47.8133V126.06C47.1866 126 46.6799 125.803 46.2933 125.47C45.9066 125.137 45.7133 124.697 45.7133 124.15H46.9333C46.9533 124.41 47.0366 124.627 47.1833 124.8C47.3299 124.967 47.5399 125.073 47.8133 125.12V122.92C47.3666 122.807 47.0033 122.693 46.7233 122.58C46.4433 122.46 46.2033 122.273 46.0033 122.02C45.8099 121.767 45.7133 121.42 45.7133 120.98C45.7133 120.427 45.9066 119.97 46.2933 119.61C46.6799 119.243 47.1866 119.03 47.8133 118.97V118.16H48.4633V118.97C49.0499 119.023 49.5199 119.21 49.8733 119.53C50.2333 119.843 50.4366 120.277 50.4833 120.83H49.2633C49.2433 120.623 49.1633 120.44 49.0233 120.28C48.8833 120.113 48.6966 120 48.4633 119.94V122.1C48.9099 122.207 49.2733 122.32 49.5533 122.44C49.8333 122.553 50.0699 122.737 50.2633 122.99C50.4566 123.237 50.5533 123.58 50.5533 124.02ZM46.8733 120.92C46.8733 121.193 46.9533 121.407 47.1133 121.56C47.2799 121.713 47.5133 121.837 47.8133 121.93V119.91C47.5266 119.943 47.2966 120.047 47.1233 120.22C46.9566 120.393 46.8733 120.627 46.8733 120.92ZM48.4633 125.12C48.7566 125.073 48.9866 124.957 49.1533 124.77C49.3199 124.577 49.4033 124.347 49.4033 124.08C49.4033 123.813 49.3199 123.607 49.1533 123.46C48.9933 123.307 48.7633 123.183 48.4633 123.09V125.12ZM52.8472 124.45C53.4872 123.897 53.9905 123.443 54.3572 123.09C54.7305 122.73 55.0405 122.357 55.2872 121.97C55.5339 121.583 55.6572 121.197 55.6572 120.81C55.6572 120.41 55.5605 120.097 55.3672 119.87C55.1805 119.643 54.8839 119.53 54.4772 119.53C54.0839 119.53 53.7772 119.657 53.5572 119.91C53.3439 120.157 53.2305 120.49 53.2172 120.91H52.1172C52.1372 120.15 52.3639 119.57 52.7972 119.17C53.2372 118.763 53.7939 118.56 54.4672 118.56C55.1939 118.56 55.7605 118.76 56.1672 119.16C56.5805 119.56 56.7872 120.093 56.7872 120.76C56.7872 121.24 56.6639 121.703 56.4172 122.15C56.1772 122.59 55.8872 122.987 55.5472 123.34C55.2139 123.687 54.7872 124.09 54.2672 124.55L53.8172 124.95H56.9872V125.9H52.1272V125.07L52.8472 124.45ZM62.6887 119.69H59.3387V121.68C59.4787 121.493 59.6853 121.337 59.9587 121.21C60.2387 121.083 60.5353 121.02 60.8487 121.02C61.4087 121.02 61.862 121.14 62.2087 121.38C62.562 121.62 62.812 121.923 62.9587 122.29C63.112 122.657 63.1887 123.043 63.1887 123.45C63.1887 123.943 63.092 124.383 62.8987 124.77C62.712 125.15 62.4287 125.45 62.0487 125.67C61.6753 125.89 61.2153 126 60.6687 126C59.942 126 59.3587 125.82 58.9187 125.46C58.4787 125.1 58.2153 124.623 58.1287 124.03H59.2387C59.312 124.343 59.4753 124.593 59.7287 124.78C59.982 124.96 60.2987 125.05 60.6787 125.05C61.152 125.05 61.5053 124.907 61.7387 124.62C61.9787 124.333 62.0987 123.953 62.0987 123.48C62.0987 123 61.9787 122.633 61.7387 122.38C61.4987 122.12 61.1453 121.99 60.6787 121.99C60.352 121.99 60.0753 122.073 59.8487 122.24C59.6287 122.4 59.4687 122.62 59.3687 122.9H58.2887V118.69H62.6887V119.69ZM64.9854 126.07C64.7787 126.07 64.6054 126 64.4654 125.86C64.3254 125.72 64.2554 125.547 64.2554 125.34C64.2554 125.133 64.3254 124.96 64.4654 124.82C64.6054 124.68 64.7787 124.61 64.9854 124.61C65.1854 124.61 65.3554 124.68 65.4954 124.82C65.6354 124.96 65.7054 125.133 65.7054 125.34C65.7054 125.547 65.6354 125.72 65.4954 125.86C65.3554 126 65.1854 126.07 64.9854 126.07ZM66.7875 122.26C66.7875 121.107 66.9808 120.207 67.3675 119.56C67.7608 118.907 68.4342 118.58 69.3875 118.58C70.3408 118.58 71.0108 118.907 71.3975 119.56C71.7908 120.207 71.9875 121.107 71.9875 122.26C71.9875 123.427 71.7908 124.34 71.3975 125C71.0108 125.653 70.3408 125.98 69.3875 125.98C68.4342 125.98 67.7608 125.653 67.3675 125C66.9808 124.34 66.7875 123.427 66.7875 122.26ZM70.8675 122.26C70.8675 121.72 70.8308 121.263 70.7575 120.89C70.6908 120.517 70.5508 120.213 70.3375 119.98C70.1242 119.74 69.8075 119.62 69.3875 119.62C68.9675 119.62 68.6508 119.74 68.4375 119.98C68.2242 120.213 68.0808 120.517 68.0075 120.89C67.9408 121.263 67.9075 121.72 67.9075 122.26C67.9075 122.82 67.9408 123.29 68.0075 123.67C68.0742 124.05 68.2142 124.357 68.4275 124.59C68.6475 124.823 68.9675 124.94 69.3875 124.94C69.8075 124.94 70.1242 124.823 70.3375 124.59C70.5575 124.357 70.7008 124.05 70.7675 123.67C70.8342 123.29 70.8675 122.82 70.8675 122.26ZM73.1938 122.26C73.1938 121.107 73.3871 120.207 73.7738 119.56C74.1671 118.907 74.8404 118.58 75.7938 118.58C76.7471 118.58 77.4171 118.907 77.8038 119.56C78.1971 120.207 78.3938 121.107 78.3938 122.26C78.3938 123.427 78.1971 124.34 77.8038 125C77.4171 125.653 76.7471 125.98 75.7938 125.98C74.8404 125.98 74.1671 125.653 73.7738 125C73.3871 124.34 73.1938 123.427 73.1938 122.26ZM77.2738 122.26C77.2738 121.72 77.2371 121.263 77.1638 120.89C77.0971 120.517 76.9571 120.213 76.7438 119.98C76.5304 119.74 76.2138 119.62 75.7938 119.62C75.3738 119.62 75.0571 119.74 74.8438 119.98C74.6304 120.213 74.4871 120.517 74.4138 120.89C74.3471 121.263 74.3138 121.72 74.3138 122.26C74.3138 122.82 74.3471 123.29 74.4138 123.67C74.4804 124.05 74.6204 124.357 74.8338 124.59C75.0538 124.823 75.3738 124.94 75.7938 124.94C76.2138 124.94 76.5304 124.823 76.7438 124.59C76.9638 124.357 77.1071 124.05 77.1738 123.67C77.2404 123.29 77.2738 122.82 77.2738 122.26Z" fill="#41477A"/>
<path d="M28.2011 120.408V120.872H26.6491V126H26.0891V120.872H24.5291V120.408H28.2011ZM28.8293 123.808C28.8293 123.36 28.9173 122.968 29.0933 122.632C29.2746 122.291 29.5226 122.029 29.8373 121.848C30.1573 121.661 30.5173 121.568 30.9173 121.568C31.3333 121.568 31.6906 121.664 31.9893 121.856C32.2933 122.048 32.512 122.293 32.6453 122.592V121.632H33.2053V126H32.6453V125.032C32.5066 125.331 32.2853 125.579 31.9813 125.776C31.6826 125.968 31.3253 126.064 30.9093 126.064C30.5146 126.064 30.1573 125.971 29.8373 125.784C29.5226 125.597 29.2746 125.333 29.0933 124.992C28.9173 124.651 28.8293 124.256 28.8293 123.808ZM32.6453 123.816C32.6453 123.464 32.5733 123.155 32.4293 122.888C32.2853 122.621 32.088 122.416 31.8373 122.272C31.592 122.128 31.32 122.056 31.0213 122.056C30.712 122.056 30.4346 122.125 30.1893 122.264C29.944 122.403 29.7493 122.605 29.6053 122.872C29.4666 123.133 29.3973 123.445 29.3973 123.808C29.3973 124.165 29.4666 124.48 29.6053 124.752C29.7493 125.019 29.944 125.224 30.1893 125.368C30.4346 125.507 30.712 125.576 31.0213 125.576C31.32 125.576 31.592 125.504 31.8373 125.36C32.088 125.216 32.2853 125.011 32.4293 124.744C32.5733 124.477 32.6453 124.168 32.6453 123.816ZM36.7718 126L35.6438 124.24L34.5558 126H33.9638L35.3718 123.816L33.9798 121.632H34.6118L35.7238 123.368L36.8038 121.632H37.3878L35.9958 123.792L37.4038 126H36.7718ZM38.2594 126.04C38.1421 126.04 38.0434 126 37.9634 125.92C37.8888 125.84 37.8514 125.741 37.8514 125.624C37.8514 125.507 37.8888 125.411 37.9634 125.336C38.0434 125.256 38.1421 125.216 38.2594 125.216C38.3714 125.216 38.4648 125.256 38.5394 125.336C38.6194 125.411 38.6594 125.507 38.6594 125.624C38.6594 125.741 38.6194 125.84 38.5394 125.92C38.4648 126 38.3714 126.04 38.2594 126.04ZM38.2594 122.56C38.1421 122.56 38.0434 122.52 37.9634 122.44C37.8888 122.36 37.8514 122.261 37.8514 122.144C37.8514 122.027 37.8888 121.931 37.9634 121.856C38.0434 121.776 38.1421 121.736 38.2594 121.736C38.3714 121.736 38.4648 121.776 38.5394 121.856C38.6194 121.931 38.6594 122.027 38.6594 122.144C38.6594 122.261 38.6194 122.36 38.5394 122.44C38.4648 122.52 38.3714 122.56 38.2594 122.56Z" fill="#6F7399"/>
<path d="M230.91 123.96C230.91 124.327 230.814 124.667 230.62 124.98C230.434 125.287 230.154 125.54 229.78 125.74C229.414 125.933 228.977 126.04 228.47 126.06V126.87H227.83V126.05C227.124 125.99 226.554 125.78 226.12 125.42C225.687 125.053 225.457 124.557 225.43 123.93H227.25C227.29 124.33 227.484 124.587 227.83 124.7V123.12C227.31 122.987 226.894 122.857 226.58 122.73C226.274 122.603 226.004 122.4 225.77 122.12C225.537 121.84 225.42 121.457 225.42 120.97C225.42 120.363 225.644 119.877 226.09 119.51C226.544 119.143 227.124 118.937 227.83 118.89V118.08H228.47V118.89C229.17 118.943 229.724 119.147 230.13 119.5C230.537 119.853 230.764 120.343 230.81 120.97H228.98C228.94 120.61 228.77 120.377 228.47 120.27V121.82C229.024 121.973 229.45 122.11 229.75 122.23C230.05 122.35 230.317 122.55 230.55 122.83C230.79 123.103 230.91 123.48 230.91 123.96ZM227.23 120.89C227.23 121.057 227.28 121.197 227.38 121.31C227.487 121.423 227.637 121.523 227.83 121.61V120.22C227.644 120.253 227.497 120.327 227.39 120.44C227.284 120.547 227.23 120.697 227.23 120.89ZM228.47 124.73C228.67 124.697 228.827 124.617 228.94 124.49C229.06 124.363 229.12 124.207 229.12 124.02C229.12 123.847 229.064 123.707 228.95 123.6C228.844 123.487 228.684 123.39 228.47 123.31V124.73ZM231.953 124.63C232.179 124.45 232.283 124.367 232.263 124.38C232.916 123.84 233.429 123.397 233.803 123.05C234.183 122.703 234.503 122.34 234.763 121.96C235.023 121.58 235.153 121.21 235.153 120.85C235.153 120.577 235.089 120.363 234.963 120.21C234.836 120.057 234.646 119.98 234.393 119.98C234.139 119.98 233.939 120.077 233.793 120.27C233.653 120.457 233.583 120.723 233.583 121.07H231.933C231.946 120.503 232.066 120.03 232.293 119.65C232.526 119.27 232.829 118.99 233.203 118.81C233.583 118.63 234.003 118.54 234.463 118.54C235.256 118.54 235.853 118.743 236.253 119.15C236.659 119.557 236.863 120.087 236.863 120.74C236.863 121.453 236.619 122.117 236.133 122.73C235.646 123.337 235.026 123.93 234.273 124.51H236.973V125.9H231.953V124.63ZM242.385 119.98L239.875 126H238.125L240.665 120.17H237.555V118.71H242.385V119.98ZM248.217 120.19H245.097V121.57C245.23 121.423 245.417 121.303 245.657 121.21C245.897 121.117 246.157 121.07 246.437 121.07C246.937 121.07 247.35 121.183 247.677 121.41C248.01 121.637 248.254 121.93 248.407 122.29C248.56 122.65 248.637 123.04 248.637 123.46C248.637 124.24 248.417 124.86 247.977 125.32C247.537 125.773 246.917 126 246.117 126C245.584 126 245.12 125.91 244.727 125.73C244.334 125.543 244.03 125.287 243.817 124.96C243.604 124.633 243.487 124.257 243.467 123.83H245.137C245.177 124.037 245.274 124.21 245.427 124.35C245.58 124.483 245.79 124.55 246.057 124.55C246.37 124.55 246.604 124.45 246.757 124.25C246.91 124.05 246.987 123.783 246.987 123.45C246.987 123.123 246.907 122.873 246.747 122.7C246.587 122.527 246.354 122.44 246.047 122.44C245.82 122.44 245.634 122.497 245.487 122.61C245.34 122.717 245.244 122.86 245.197 123.04H243.547V118.69H248.217V120.19ZM250.551 126.08C250.251 126.08 250.004 125.993 249.811 125.82C249.624 125.64 249.531 125.42 249.531 125.16C249.531 124.893 249.624 124.67 249.811 124.49C250.004 124.31 250.251 124.22 250.551 124.22C250.844 124.22 251.084 124.31 251.271 124.49C251.464 124.67 251.561 124.893 251.561 125.16C251.561 125.42 251.464 125.64 251.271 125.82C251.084 125.993 250.844 126.08 250.551 126.08ZM252.403 122.25C252.403 121.103 252.623 120.2 253.063 119.54C253.51 118.88 254.226 118.55 255.213 118.55C256.2 118.55 256.913 118.88 257.353 119.54C257.8 120.2 258.023 121.103 258.023 122.25C258.023 123.41 257.8 124.32 257.353 124.98C256.913 125.64 256.2 125.97 255.213 125.97C254.226 125.97 253.51 125.64 253.063 124.98C252.623 124.32 252.403 123.41 252.403 122.25ZM256.343 122.25C256.343 121.577 256.27 121.06 256.123 120.7C255.976 120.333 255.673 120.15 255.213 120.15C254.753 120.15 254.45 120.333 254.303 120.7C254.156 121.06 254.083 121.577 254.083 122.25C254.083 122.703 254.11 123.08 254.163 123.38C254.216 123.673 254.323 123.913 254.483 124.1C254.65 124.28 254.893 124.37 255.213 124.37C255.533 124.37 255.773 124.28 255.933 124.1C256.1 123.913 256.21 123.673 256.263 123.38C256.316 123.08 256.343 122.703 256.343 122.25ZM258.927 122.25C258.927 121.103 259.147 120.2 259.587 119.54C260.033 118.88 260.75 118.55 261.737 118.55C262.723 118.55 263.437 118.88 263.877 119.54C264.323 120.2 264.547 121.103 264.547 122.25C264.547 123.41 264.323 124.32 263.877 124.98C263.437 125.64 262.723 125.97 261.737 125.97C260.75 125.97 260.033 125.64 259.587 124.98C259.147 124.32 258.927 123.41 258.927 122.25ZM262.867 122.25C262.867 121.577 262.793 121.06 262.647 120.7C262.5 120.333 262.197 120.15 261.737 120.15C261.277 120.15 260.973 120.333 260.827 120.7C260.68 121.06 260.607 121.577 260.607 122.25C260.607 122.703 260.633 123.08 260.687 123.38C260.74 123.673 260.847 123.913 261.007 124.1C261.173 124.28 261.417 124.37 261.737 124.37C262.057 124.37 262.297 124.28 262.457 124.1C262.623 123.913 262.733 123.673 262.787 123.38C262.84 123.08 262.867 122.703 262.867 122.25Z" fill="#41477A"/>
<path d="M148.295 124.76H145.863L145.415 126H144.647L146.663 120.456H147.503L149.511 126H148.743L148.295 124.76ZM148.087 124.168L147.079 121.352L146.071 124.168H148.087ZM155.661 121.536C156.003 121.536 156.307 121.608 156.573 121.752C156.84 121.891 157.051 122.101 157.205 122.384C157.36 122.667 157.437 123.011 157.437 123.416V126H156.717V123.52C156.717 123.083 156.608 122.749 156.389 122.52C156.176 122.285 155.885 122.168 155.517 122.168C155.139 122.168 154.837 122.291 154.613 122.536C154.389 122.776 154.277 123.125 154.277 123.584V126H153.557V123.52C153.557 123.083 153.448 122.749 153.229 122.52C153.016 122.285 152.725 122.168 152.357 122.168C151.979 122.168 151.677 122.291 151.453 122.536C151.229 122.776 151.117 123.125 151.117 123.584V126H150.389V121.616H151.117V122.248C151.261 122.019 151.453 121.843 151.693 121.72C151.939 121.597 152.208 121.536 152.501 121.536C152.869 121.536 153.195 121.619 153.477 121.784C153.76 121.949 153.971 122.192 154.109 122.512C154.232 122.203 154.435 121.963 154.717 121.792C155 121.621 155.315 121.536 155.661 121.536ZM160.544 126.072C160.133 126.072 159.76 125.979 159.424 125.792C159.093 125.605 158.832 125.341 158.64 125C158.453 124.653 158.36 124.253 158.36 123.8C158.36 123.352 158.456 122.957 158.648 122.616C158.845 122.269 159.112 122.005 159.448 121.824C159.784 121.637 160.16 121.544 160.576 121.544C160.992 121.544 161.368 121.637 161.704 121.824C162.04 122.005 162.304 122.267 162.496 122.608C162.693 122.949 162.792 123.347 162.792 123.8C162.792 124.253 162.69 124.653 162.488 125C162.29 125.341 162.021 125.605 161.68 125.792C161.338 125.979 160.96 126.072 160.544 126.072ZM160.544 125.432C160.805 125.432 161.05 125.371 161.28 125.248C161.509 125.125 161.693 124.941 161.832 124.696C161.976 124.451 162.048 124.152 162.048 123.8C162.048 123.448 161.978 123.149 161.84 122.904C161.701 122.659 161.52 122.477 161.296 122.36C161.072 122.237 160.829 122.176 160.568 122.176C160.301 122.176 160.056 122.237 159.832 122.36C159.613 122.477 159.437 122.659 159.304 122.904C159.17 123.149 159.104 123.448 159.104 123.8C159.104 124.157 159.168 124.459 159.296 124.704C159.429 124.949 159.605 125.133 159.824 125.256C160.042 125.373 160.282 125.432 160.544 125.432ZM167.637 121.616V126H166.909V125.352C166.77 125.576 166.575 125.752 166.325 125.88C166.079 126.003 165.807 126.064 165.509 126.064C165.167 126.064 164.861 125.995 164.589 125.856C164.317 125.712 164.101 125.499 163.941 125.216C163.786 124.933 163.709 124.589 163.709 124.184V121.616H164.429V124.088C164.429 124.52 164.538 124.853 164.757 125.088C164.975 125.317 165.274 125.432 165.653 125.432C166.042 125.432 166.349 125.312 166.573 125.072C166.797 124.832 166.909 124.483 166.909 124.024V121.616H167.637ZM171.002 121.536C171.535 121.536 171.967 121.699 172.298 122.024C172.629 122.344 172.794 122.808 172.794 123.416V126H172.074V123.52C172.074 123.083 171.965 122.749 171.746 122.52C171.527 122.285 171.229 122.168 170.85 122.168C170.466 122.168 170.159 122.288 169.93 122.528C169.706 122.768 169.594 123.117 169.594 123.576V126H168.866V121.616H169.594V122.24C169.738 122.016 169.933 121.843 170.178 121.72C170.429 121.597 170.703 121.536 171.002 121.536ZM174.871 122.216V124.8C174.871 125.013 174.917 125.165 175.007 125.256C175.098 125.341 175.255 125.384 175.479 125.384H176.015V126H175.359C174.954 126 174.65 125.907 174.447 125.72C174.245 125.533 174.143 125.227 174.143 124.8V122.216H173.575V121.616H174.143V120.512H174.871V121.616H176.015V122.216H174.871ZM180.766 120.424C181.374 120.424 181.899 120.539 182.342 120.768C182.79 120.992 183.131 121.315 183.366 121.736C183.606 122.157 183.726 122.653 183.726 123.224C183.726 123.795 183.606 124.291 183.366 124.712C183.131 125.128 182.79 125.448 182.342 125.672C181.899 125.891 181.374 126 180.766 126H179.03V120.424H180.766ZM180.766 125.4C181.486 125.4 182.035 125.211 182.414 124.832C182.793 124.448 182.982 123.912 182.982 123.224C182.982 122.531 182.79 121.989 182.406 121.6C182.027 121.211 181.481 121.016 180.766 121.016H179.758V125.4H180.766ZM188.574 121.616V126H187.846V125.352C187.708 125.576 187.513 125.752 187.262 125.88C187.017 126.003 186.745 126.064 186.446 126.064C186.105 126.064 185.798 125.995 185.526 125.856C185.254 125.712 185.038 125.499 184.878 125.216C184.724 124.933 184.646 124.589 184.646 124.184V121.616H185.366V124.088C185.366 124.52 185.476 124.853 185.694 125.088C185.913 125.317 186.212 125.432 186.59 125.432C186.98 125.432 187.286 125.312 187.51 125.072C187.734 124.832 187.846 124.483 187.846 124.024V121.616H188.574ZM193.804 123.64C193.804 123.779 193.796 123.925 193.78 124.08H190.276C190.302 124.512 190.449 124.851 190.716 125.096C190.988 125.336 191.316 125.456 191.7 125.456C192.014 125.456 192.276 125.384 192.484 125.24C192.697 125.091 192.846 124.893 192.932 124.648H193.716C193.598 125.069 193.364 125.413 193.012 125.68C192.66 125.941 192.222 126.072 191.7 126.072C191.284 126.072 190.91 125.979 190.58 125.792C190.254 125.605 189.998 125.341 189.812 125C189.625 124.653 189.532 124.253 189.532 123.8C189.532 123.347 189.622 122.949 189.804 122.608C189.985 122.267 190.238 122.005 190.564 121.824C190.894 121.637 191.273 121.544 191.7 121.544C192.116 121.544 192.484 121.635 192.804 121.816C193.124 121.997 193.369 122.248 193.54 122.568C193.716 122.883 193.804 123.24 193.804 123.64ZM193.052 123.488C193.052 123.211 192.99 122.973 192.868 122.776C192.745 122.573 192.577 122.421 192.364 122.32C192.156 122.213 191.924 122.16 191.668 122.16C191.3 122.16 190.985 122.277 190.724 122.512C190.468 122.747 190.321 123.072 190.284 123.488H193.052ZM198.769 127.488C198.257 126.987 197.857 126.349 197.569 125.576C197.287 124.803 197.145 123.968 197.145 123.072C197.145 122.155 197.295 121.299 197.593 120.504C197.897 119.704 198.329 119.045 198.889 118.528H199.649V118.6C199.052 119.16 198.601 119.835 198.297 120.624C197.999 121.408 197.849 122.224 197.849 123.072C197.849 123.899 197.991 124.688 198.273 125.44C198.561 126.192 198.98 126.851 199.529 127.416V127.488H198.769ZM201.242 120.424V123.952C201.242 124.448 201.362 124.816 201.602 125.056C201.847 125.296 202.186 125.416 202.618 125.416C203.045 125.416 203.378 125.296 203.618 125.056C203.863 124.816 203.986 124.448 203.986 123.952V120.424H204.714V123.944C204.714 124.408 204.621 124.8 204.434 125.12C204.247 125.435 203.994 125.669 203.674 125.824C203.359 125.979 203.005 126.056 202.61 126.056C202.215 126.056 201.858 125.979 201.538 125.824C201.223 125.669 200.973 125.435 200.786 125.12C200.605 124.8 200.514 124.408 200.514 123.944V120.424H201.242ZM207.697 126.056C207.329 126.056 206.998 125.992 206.705 125.864C206.417 125.731 206.19 125.549 206.025 125.32C205.859 125.085 205.774 124.816 205.769 124.512H206.545C206.571 124.773 206.678 124.995 206.865 125.176C207.057 125.352 207.334 125.44 207.697 125.44C208.043 125.44 208.315 125.355 208.513 125.184C208.715 125.008 208.817 124.784 208.817 124.512C208.817 124.299 208.758 124.125 208.641 123.992C208.523 123.859 208.377 123.757 208.201 123.688C208.025 123.619 207.787 123.544 207.489 123.464C207.121 123.368 206.825 123.272 206.601 123.176C206.382 123.08 206.193 122.931 206.033 122.728C205.878 122.52 205.801 122.243 205.801 121.896C205.801 121.592 205.878 121.323 206.033 121.088C206.187 120.853 206.403 120.672 206.681 120.544C206.963 120.416 207.286 120.352 207.649 120.352C208.171 120.352 208.598 120.483 208.929 120.744C209.265 121.005 209.454 121.352 209.497 121.784H208.697C208.67 121.571 208.558 121.384 208.361 121.224C208.163 121.059 207.902 120.976 207.577 120.976C207.273 120.976 207.025 121.056 206.833 121.216C206.641 121.371 206.545 121.589 206.545 121.872C206.545 122.075 206.601 122.24 206.713 122.368C206.83 122.496 206.971 122.595 207.137 122.664C207.307 122.728 207.545 122.803 207.849 122.888C208.217 122.989 208.513 123.091 208.737 123.192C208.961 123.288 209.153 123.44 209.312 123.648C209.473 123.851 209.553 124.128 209.553 124.48C209.553 124.752 209.481 125.008 209.337 125.248C209.193 125.488 208.979 125.683 208.697 125.832C208.414 125.981 208.081 126.056 207.697 126.056ZM212.36 120.424C212.968 120.424 213.493 120.539 213.936 120.768C214.384 120.992 214.725 121.315 214.96 121.736C215.2 122.157 215.32 122.653 215.32 123.224C215.32 123.795 215.2 124.291 214.96 124.712C214.725 125.128 214.384 125.448 213.936 125.672C213.493 125.891 212.968 126 212.36 126H210.624V120.424H212.36ZM212.36 125.4C213.08 125.4 213.629 125.211 214.008 124.832C214.386 124.448 214.576 123.912 214.576 123.224C214.576 122.531 214.384 121.989 214 121.6C213.621 121.211 213.074 121.016 212.36 121.016H211.352V125.4H212.36ZM216.048 127.488V127.416C216.597 126.851 217.013 126.192 217.296 125.44C217.584 124.688 217.728 123.899 217.728 123.072C217.728 122.224 217.576 121.408 217.272 120.624C216.973 119.835 216.525 119.16 215.928 118.6V118.528H216.688C217.248 119.045 217.677 119.704 217.976 120.504C218.28 121.299 218.432 122.155 218.432 123.072C218.432 123.968 218.288 124.803 218 125.576C217.717 126.349 217.32 126.987 216.808 127.488H216.048ZM220.145 126.048C220.006 126.048 219.889 126 219.793 125.904C219.697 125.808 219.649 125.691 219.649 125.552C219.649 125.413 219.697 125.296 219.793 125.2C219.889 125.104 220.006 125.056 220.145 125.056C220.278 125.056 220.39 125.104 220.481 125.2C220.577 125.296 220.625 125.413 220.625 125.552C220.625 125.691 220.577 125.808 220.481 125.904C220.39 126 220.278 126.048 220.145 126.048ZM220.145 122.624C220.006 122.624 219.889 122.576 219.793 122.48C219.697 122.384 219.649 122.267 219.649 122.128C219.649 121.989 219.697 121.872 219.793 121.776C219.889 121.68 220.006 121.632 220.145 121.632C220.278 121.632 220.39 121.68 220.481 121.776C220.577 121.872 220.625 121.989 220.625 122.128C220.625 122.267 220.577 122.384 220.481 122.48C220.39 122.576 220.278 122.624 220.145 122.624Z" fill="#6F7399"/>
<path d="M103.46 37.48V36.62L106.82 31.8H108.2V36.49H109.13V37.48H108.2V39H107.08V37.48H103.46ZM107.13 32.96L104.77 36.49H107.13V32.96ZM111.495 37.02C111.561 37.3533 111.705 37.6067 111.925 37.78C112.145 37.9533 112.441 38.04 112.815 38.04C113.288 38.04 113.635 37.8533 113.855 37.48C114.075 37.1067 114.185 36.47 114.185 35.57C114.025 35.7967 113.798 35.9733 113.505 36.1C113.218 36.22 112.905 36.28 112.565 36.28C112.131 36.28 111.738 36.1933 111.385 36.02C111.031 35.84 110.751 35.5767 110.545 35.23C110.345 34.8767 110.245 34.45 110.245 33.95C110.245 33.2167 110.458 32.6333 110.885 32.2C111.318 31.76 111.911 31.54 112.665 31.54C113.571 31.54 114.215 31.8433 114.595 32.45C114.981 33.05 115.175 33.9733 115.175 35.22C115.175 36.08 115.101 36.7833 114.955 37.33C114.815 37.8767 114.568 38.29 114.215 38.57C113.861 38.85 113.371 38.99 112.745 38.99C112.031 38.99 111.481 38.8033 111.095 38.43C110.708 38.0567 110.491 37.5867 110.445 37.02H111.495ZM112.765 35.32C113.165 35.32 113.478 35.1967 113.705 34.95C113.938 34.6967 114.055 34.3633 114.055 33.95C114.055 33.49 113.931 33.1333 113.685 32.88C113.445 32.62 113.115 32.49 112.695 32.49C112.275 32.49 111.941 32.6233 111.695 32.89C111.455 33.15 111.335 33.4933 111.335 33.92C111.335 34.3267 111.451 34.6633 111.685 34.93C111.925 35.19 112.285 35.32 112.765 35.32ZM120.342 33.4C120.269 33.0933 120.136 32.8633 119.942 32.71C119.749 32.5567 119.479 32.48 119.132 32.48C118.606 32.48 118.212 32.6833 117.952 33.09C117.692 33.49 117.556 34.1567 117.542 35.09C117.716 34.7967 117.969 34.57 118.302 34.41C118.636 34.25 118.996 34.17 119.382 34.17C119.822 34.17 120.209 34.2667 120.542 34.46C120.882 34.6467 121.146 34.92 121.332 35.28C121.526 35.64 121.622 36.07 121.622 36.57C121.622 37.0367 121.529 37.4533 121.342 37.82C121.162 38.1867 120.892 38.4767 120.532 38.69C120.172 38.8967 119.739 39 119.232 39C118.546 39 118.006 38.85 117.612 38.55C117.226 38.2433 116.952 37.8133 116.792 37.26C116.639 36.7067 116.562 36.0167 116.562 35.19C116.562 32.75 117.422 31.53 119.142 31.53C119.809 31.53 120.332 31.71 120.712 32.07C121.099 32.43 121.326 32.8733 121.392 33.4H120.342ZM119.132 35.13C118.726 35.13 118.379 35.2533 118.092 35.5C117.812 35.74 117.672 36.09 117.672 36.55C117.672 37.01 117.802 37.3767 118.062 37.65C118.329 37.9167 118.699 38.05 119.172 38.05C119.592 38.05 119.922 37.92 120.162 37.66C120.409 37.4 120.532 37.0533 120.532 36.62C120.532 36.1667 120.412 35.8067 120.172 35.54C119.939 35.2667 119.592 35.13 119.132 35.13ZM124.068 35.19C123.375 34.8433 123.028 34.2967 123.028 33.55C123.028 33.19 123.118 32.86 123.298 32.56C123.478 32.26 123.748 32.0233 124.108 31.85C124.468 31.67 124.908 31.58 125.428 31.58C125.942 31.58 126.378 31.67 126.738 31.85C127.105 32.0233 127.378 32.26 127.558 32.56C127.738 32.86 127.828 33.19 127.828 33.55C127.828 33.9233 127.732 34.2533 127.538 34.54C127.352 34.82 127.102 35.0367 126.788 35.19C127.168 35.33 127.468 35.56 127.688 35.88C127.908 36.1933 128.018 36.5633 128.018 36.99C128.018 37.4233 127.908 37.8067 127.688 38.14C127.468 38.4733 127.162 38.73 126.768 38.91C126.375 39.09 125.928 39.18 125.428 39.18C124.928 39.18 124.482 39.09 124.088 38.91C123.702 38.73 123.398 38.4733 123.178 38.14C122.958 37.8067 122.848 37.4233 122.848 36.99C122.848 36.5567 122.958 36.1833 123.178 35.87C123.398 35.5567 123.695 35.33 124.068 35.19ZM126.738 33.69C126.738 33.3167 126.622 33.03 126.388 32.83C126.155 32.63 125.835 32.53 125.428 32.53C125.028 32.53 124.712 32.63 124.478 32.83C124.245 33.03 124.128 33.32 124.128 33.7C124.128 34.0333 124.248 34.3067 124.488 34.52C124.735 34.7267 125.048 34.83 125.428 34.83C125.808 34.83 126.122 34.7233 126.368 34.51C126.615 34.2967 126.738 34.0233 126.738 33.69ZM125.428 35.69C124.988 35.69 124.628 35.8 124.348 36.02C124.075 36.2333 123.938 36.5433 123.938 36.95C123.938 37.33 124.072 37.64 124.338 37.88C124.605 38.1133 124.968 38.23 125.428 38.23C125.882 38.23 126.238 38.11 126.498 37.87C126.765 37.63 126.898 37.3233 126.898 36.95C126.898 36.55 126.762 36.24 126.488 36.02C126.222 35.8 125.868 35.69 125.428 35.69ZM129.845 37.45C130.485 36.8967 130.989 36.4433 131.355 36.09C131.729 35.73 132.039 35.3567 132.285 34.97C132.532 34.5833 132.655 34.1967 132.655 33.81C132.655 33.41 132.559 33.0967 132.365 32.87C132.179 32.6433 131.882 32.53 131.475 32.53C131.082 32.53 130.775 32.6567 130.555 32.91C130.342 33.1567 130.229 33.49 130.215 33.91H129.115C129.135 33.15 129.362 32.57 129.795 32.17C130.235 31.7633 130.792 31.56 131.465 31.56C132.192 31.56 132.759 31.76 133.165 32.16C133.579 32.56 133.785 33.0933 133.785 33.76C133.785 34.24 133.662 34.7033 133.415 35.15C133.175 35.59 132.885 35.9867 132.545 36.34C132.212 36.6867 131.785 37.09 131.265 37.55L130.815 37.95H133.985V38.9H129.125V38.07L129.845 37.45Z" fill="#41477A"/>
<path d="M104.2 17.408V23H103.64V17.408H104.2ZM107.516 18.552C108.039 18.552 108.465 18.7147 108.796 19.04C109.127 19.36 109.292 19.8267 109.292 20.44V23H108.74V20.504C108.74 20.0293 108.62 19.6667 108.38 19.416C108.145 19.1653 107.823 19.04 107.412 19.04C106.991 19.04 106.655 19.1733 106.404 19.44C106.153 19.7067 106.028 20.0987 106.028 20.616V23H105.468V18.632H106.028V19.376C106.167 19.1093 106.367 18.9067 106.628 18.768C106.889 18.624 107.185 18.552 107.516 18.552ZM112.083 22.456L113.555 18.632H114.147L112.395 23H111.763L110.011 18.632H110.611L112.083 22.456ZM116.818 23.064C116.407 23.064 116.036 22.9733 115.706 22.792C115.38 22.6053 115.122 22.344 114.93 22.008C114.743 21.6667 114.65 21.2693 114.65 20.816C114.65 20.3627 114.746 19.968 114.938 19.632C115.13 19.2907 115.391 19.0293 115.722 18.848C116.052 18.6613 116.423 18.568 116.834 18.568C117.244 18.568 117.615 18.6613 117.946 18.848C118.282 19.0293 118.543 19.2907 118.73 19.632C118.922 19.968 119.018 20.3627 119.018 20.816C119.018 21.264 118.922 21.6587 118.73 22C118.538 22.3413 118.274 22.6053 117.938 22.792C117.602 22.9733 117.228 23.064 116.818 23.064ZM116.818 22.576C117.106 22.576 117.372 22.512 117.618 22.384C117.863 22.2507 118.06 22.0533 118.21 21.792C118.364 21.5253 118.442 21.2 118.442 20.816C118.442 20.432 118.367 20.1093 118.218 19.848C118.068 19.5813 117.871 19.384 117.626 19.256C117.38 19.1227 117.114 19.056 116.826 19.056C116.538 19.056 116.271 19.1227 116.026 19.256C115.78 19.384 115.583 19.5813 115.434 19.848C115.29 20.1093 115.218 20.432 115.218 20.816C115.218 21.2 115.29 21.5253 115.434 21.792C115.583 22.0533 115.778 22.2507 116.018 22.384C116.263 22.512 116.53 22.576 116.818 22.576ZM120.318 17.808C120.206 17.808 120.11 17.768 120.03 17.688C119.95 17.608 119.91 17.5093 119.91 17.392C119.91 17.2747 119.95 17.1787 120.03 17.104C120.11 17.024 120.206 16.984 120.318 16.984C120.43 16.984 120.526 17.024 120.606 17.104C120.686 17.1787 120.726 17.2747 120.726 17.392C120.726 17.5093 120.686 17.608 120.606 17.688C120.526 17.768 120.43 17.808 120.318 17.808ZM120.598 18.632V23H120.038V18.632H120.598ZM121.611 20.816C121.611 20.3627 121.701 19.968 121.883 19.632C122.064 19.2907 122.315 19.0293 122.635 18.848C122.955 18.6613 123.32 18.568 123.731 18.568C124.269 18.568 124.712 18.7013 125.059 18.968C125.411 19.2347 125.637 19.5973 125.739 20.056H125.139C125.064 19.7413 124.901 19.496 124.651 19.32C124.405 19.1387 124.099 19.048 123.731 19.048C123.437 19.048 123.173 19.1147 122.939 19.248C122.704 19.3813 122.517 19.5813 122.379 19.848C122.245 20.1093 122.179 20.432 122.179 20.816C122.179 21.2 122.245 21.5253 122.379 21.792C122.517 22.0587 122.704 22.2587 122.939 22.392C123.173 22.5253 123.437 22.592 123.731 22.592C124.099 22.592 124.405 22.504 124.651 22.328C124.901 22.1467 125.064 21.896 125.139 21.576H125.739C125.637 22.024 125.411 22.384 125.059 22.656C124.707 22.928 124.264 23.064 123.731 23.064C123.32 23.064 122.955 22.9733 122.635 22.792C122.315 22.6053 122.064 22.344 121.883 22.008C121.701 21.6667 121.611 21.2693 121.611 20.816ZM130.725 20.592C130.725 20.784 130.719 20.9307 130.709 21.032H127.085C127.101 21.3627 127.181 21.6453 127.325 21.88C127.469 22.1147 127.658 22.2933 127.893 22.416C128.127 22.5333 128.383 22.592 128.661 22.592C129.023 22.592 129.327 22.504 129.573 22.328C129.823 22.152 129.989 21.9147 130.069 21.616H130.661C130.554 22.0427 130.325 22.392 129.973 22.664C129.626 22.9307 129.189 23.064 128.661 23.064C128.25 23.064 127.882 22.9733 127.557 22.792C127.231 22.6053 126.975 22.344 126.789 22.008C126.607 21.6667 126.517 21.2693 126.517 20.816C126.517 20.3627 126.607 19.9653 126.789 19.624C126.97 19.2827 127.223 19.0213 127.549 18.84C127.874 18.6587 128.245 18.568 128.661 18.568C129.077 18.568 129.439 18.6587 129.749 18.84C130.063 19.0213 130.303 19.2667 130.469 19.576C130.639 19.88 130.725 20.2187 130.725 20.592ZM130.157 20.576C130.162 20.2507 130.095 19.9733 129.957 19.744C129.823 19.5147 129.639 19.3413 129.405 19.224C129.17 19.1067 128.914 19.048 128.637 19.048C128.221 19.048 127.866 19.1813 127.573 19.448C127.279 19.7147 127.117 20.0907 127.085 20.576H130.157ZM138.161 23H137.601L134.505 18.296V23H133.945V17.408H134.505L137.601 22.104V17.408H138.161V23ZM143.213 18.632V23H142.653V22.232C142.525 22.504 142.328 22.712 142.061 22.856C141.794 23 141.496 23.072 141.165 23.072C140.642 23.072 140.216 22.912 139.885 22.592C139.554 22.2667 139.389 21.7973 139.389 21.184V18.632H139.941V21.12C139.941 21.5947 140.058 21.9573 140.293 22.208C140.533 22.4587 140.858 22.584 141.269 22.584C141.69 22.584 142.026 22.4507 142.277 22.184C142.528 21.9173 142.653 21.5253 142.653 21.008V18.632H143.213ZM149.692 18.552C150.204 18.552 150.62 18.7147 150.94 19.04C151.265 19.36 151.428 19.8267 151.428 20.44V23H150.876V20.504C150.876 20.0293 150.761 19.6667 150.532 19.416C150.302 19.1653 149.99 19.04 149.596 19.04C149.185 19.04 148.857 19.176 148.612 19.448C148.366 19.72 148.244 20.1147 148.244 20.632V23H147.692V20.504C147.692 20.0293 147.577 19.6667 147.348 19.416C147.118 19.1653 146.804 19.04 146.404 19.04C145.993 19.04 145.665 19.176 145.42 19.448C145.174 19.72 145.052 20.1147 145.052 20.632V23H144.492V18.632H145.052V19.384C145.19 19.112 145.388 18.9067 145.644 18.768C145.9 18.624 146.185 18.552 146.5 18.552C146.878 18.552 147.209 18.6427 147.492 18.824C147.78 19.0053 147.988 19.272 148.116 19.624C148.233 19.2773 148.433 19.0133 148.716 18.832C149.004 18.6453 149.329 18.552 149.692 18.552ZM153.223 19.6C153.367 19.296 153.589 19.048 153.887 18.856C154.191 18.664 154.549 18.568 154.959 18.568C155.359 18.568 155.717 18.6613 156.031 18.848C156.346 19.0293 156.591 19.2907 156.767 19.632C156.949 19.968 157.039 20.36 157.039 20.808C157.039 21.256 156.949 21.6507 156.767 21.992C156.591 22.3333 156.343 22.5973 156.023 22.784C155.709 22.9707 155.354 23.064 154.959 23.064C154.543 23.064 154.183 22.9707 153.879 22.784C153.581 22.592 153.362 22.344 153.223 22.04V23H152.671V17.08H153.223V19.6ZM156.471 20.808C156.471 20.4453 156.399 20.1333 156.255 19.872C156.117 19.6053 155.925 19.4027 155.679 19.264C155.434 19.1253 155.157 19.056 154.847 19.056C154.549 19.056 154.274 19.128 154.023 19.272C153.778 19.416 153.583 19.6213 153.439 19.888C153.295 20.1547 153.223 20.464 153.223 20.816C153.223 21.168 153.295 21.4773 153.439 21.744C153.583 22.0107 153.778 22.216 154.023 22.36C154.274 22.504 154.549 22.576 154.847 22.576C155.157 22.576 155.434 22.5067 155.679 22.368C155.925 22.224 156.117 22.0187 156.255 21.752C156.399 21.48 156.471 21.1653 156.471 20.808ZM162.022 20.592C162.022 20.784 162.016 20.9307 162.006 21.032H158.382C158.398 21.3627 158.478 21.6453 158.622 21.88C158.766 22.1147 158.955 22.2933 159.19 22.416C159.424 22.5333 159.68 22.592 159.958 22.592C160.32 22.592 160.624 22.504 160.87 22.328C161.12 22.152 161.286 21.9147 161.366 21.616H161.958C161.851 22.0427 161.622 22.392 161.27 22.664C160.923 22.9307 160.486 23.064 159.958 23.064C159.547 23.064 159.179 22.9733 158.854 22.792C158.528 22.6053 158.272 22.344 158.086 22.008C157.904 21.6667 157.814 21.2693 157.814 20.816C157.814 20.3627 157.904 19.9653 158.086 19.624C158.267 19.2827 158.52 19.0213 158.846 18.84C159.171 18.6587 159.542 18.568 159.958 18.568C160.374 18.568 160.736 18.6587 161.046 18.84C161.36 19.0213 161.6 19.2667 161.766 19.576C161.936 19.88 162.022 20.2187 162.022 20.592ZM161.454 20.576C161.459 20.2507 161.392 19.9733 161.254 19.744C161.12 19.5147 160.936 19.3413 160.702 19.224C160.467 19.1067 160.211 19.048 159.934 19.048C159.518 19.048 159.163 19.1813 158.87 19.448C158.576 19.7147 158.414 20.0907 158.382 20.576H161.454ZM163.606 19.408C163.729 19.136 163.916 18.9253 164.166 18.776C164.422 18.6267 164.734 18.552 165.102 18.552V19.136H164.95C164.545 19.136 164.22 19.2453 163.974 19.464C163.729 19.6827 163.606 20.048 163.606 20.56V23H163.046V18.632H163.606V19.408Z" fill="#6F7399"/>
<path d="M189.45 32.75V31.71H191.53V39H190.38V32.75H189.45ZM197.796 32.69H194.446V34.68C194.586 34.4933 194.793 34.3367 195.066 34.21C195.346 34.0833 195.643 34.02 195.956 34.02C196.516 34.02 196.969 34.14 197.316 34.38C197.669 34.62 197.919 34.9233 198.066 35.29C198.219 35.6567 198.296 36.0433 198.296 36.45C198.296 36.9433 198.199 37.3833 198.006 37.77C197.819 38.15 197.536 38.45 197.156 38.67C196.783 38.89 196.323 39 195.776 39C195.049 39 194.466 38.82 194.026 38.46C193.586 38.1 193.323 37.6233 193.236 37.03H194.346C194.419 37.3433 194.583 37.5933 194.836 37.78C195.089 37.96 195.406 38.05 195.786 38.05C196.259 38.05 196.613 37.9067 196.846 37.62C197.086 37.3333 197.206 36.9533 197.206 36.48C197.206 36 197.086 35.6333 196.846 35.38C196.606 35.12 196.253 34.99 195.786 34.99C195.459 34.99 195.183 35.0733 194.956 35.24C194.736 35.4 194.576 35.62 194.476 35.9H193.396V31.69H197.796V32.69ZM209.55 32.05V39H208.41V34.24L206.29 39H205.5L203.37 34.24V39H202.23V32.05H203.46L205.9 37.5L208.33 32.05H209.55ZM210.669 36.22C210.669 35.6667 210.782 35.1767 211.009 34.75C211.242 34.3233 211.555 33.9933 211.949 33.76C212.349 33.52 212.789 33.4 213.269 33.4C213.702 33.4 214.079 33.4867 214.399 33.66C214.725 33.8267 214.985 34.0367 215.179 34.29V33.49H216.329V39H215.179V38.18C214.985 38.44 214.722 38.6567 214.389 38.83C214.055 39.0033 213.675 39.09 213.249 39.09C212.775 39.09 212.342 38.97 211.949 38.73C211.555 38.4833 211.242 38.1433 211.009 37.71C210.782 37.27 210.669 36.7733 210.669 36.22ZM215.179 36.24C215.179 35.86 215.099 35.53 214.939 35.25C214.785 34.97 214.582 34.7567 214.329 34.61C214.075 34.4633 213.802 34.39 213.509 34.39C213.215 34.39 212.942 34.4633 212.689 34.61C212.435 34.75 212.229 34.96 212.069 35.24C211.915 35.5133 211.839 35.84 211.839 36.22C211.839 36.6 211.915 36.9333 212.069 37.22C212.229 37.5067 212.435 37.7267 212.689 37.88C212.949 38.0267 213.222 38.1 213.509 38.1C213.802 38.1 214.075 38.0267 214.329 37.88C214.582 37.7333 214.785 37.52 214.939 37.24C215.099 36.9533 215.179 36.62 215.179 36.24ZM218.966 34.29C219.133 34.01 219.353 33.7933 219.626 33.64C219.906 33.48 220.236 33.4 220.616 33.4V34.58H220.326C219.88 34.58 219.54 34.6933 219.306 34.92C219.08 35.1467 218.966 35.54 218.966 36.1V39H217.826V33.49H218.966V34.29ZM221.284 36.24C221.284 35.6733 221.397 35.1767 221.624 34.75C221.857 34.3167 222.177 33.9833 222.584 33.75C222.991 33.5167 223.457 33.4 223.984 33.4C224.651 33.4 225.201 33.56 225.634 33.88C226.074 34.1933 226.371 34.6433 226.524 35.23H225.294C225.194 34.9567 225.034 34.7433 224.814 34.59C224.594 34.4367 224.317 34.36 223.984 34.36C223.517 34.36 223.144 34.5267 222.864 34.86C222.591 35.1867 222.454 35.6467 222.454 36.24C222.454 36.8333 222.591 37.2967 222.864 37.63C223.144 37.9633 223.517 38.13 223.984 38.13C224.644 38.13 225.081 37.84 225.294 37.26H226.524C226.364 37.82 226.064 38.2667 225.624 38.6C225.184 38.9267 224.637 39.09 223.984 39.09C223.457 39.09 222.991 38.9733 222.584 38.74C222.177 38.5 221.857 38.1667 221.624 37.74C221.397 37.3067 221.284 36.8067 221.284 36.24ZM230.51 33.4C230.93 33.4 231.303 33.49 231.63 33.67C231.963 33.85 232.223 34.1167 232.41 34.47C232.603 34.8233 232.7 35.25 232.7 35.75V39H231.57V35.92C231.57 35.4267 231.447 35.05 231.2 34.79C230.953 34.5233 230.617 34.39 230.19 34.39C229.763 34.39 229.423 34.5233 229.17 34.79C228.923 35.05 228.8 35.4267 228.8 35.92V39H227.66V31.6H228.8V34.13C228.993 33.8967 229.237 33.7167 229.53 33.59C229.83 33.4633 230.157 33.4 230.51 33.4ZM235.404 37.63L234.194 40.39H233.454L234.164 37.63H235.404ZM239.478 37.45C240.118 36.8967 240.621 36.4433 240.988 36.09C241.361 35.73 241.671 35.3567 241.918 34.97C242.165 34.5833 242.288 34.1967 242.288 33.81C242.288 33.41 242.191 33.0967 241.998 32.87C241.811 32.6433 241.515 32.53 241.108 32.53C240.715 32.53 240.408 32.6567 240.188 32.91C239.975 33.1567 239.861 33.49 239.848 33.91H238.748C238.768 33.15 238.995 32.57 239.428 32.17C239.868 31.7633 240.425 31.56 241.098 31.56C241.825 31.56 242.391 31.76 242.798 32.16C243.211 32.56 243.418 33.0933 243.418 33.76C243.418 34.24 243.295 34.7033 243.048 35.15C242.808 35.59 242.518 35.9867 242.178 36.34C241.845 36.6867 241.418 37.09 240.898 37.55L240.448 37.95H243.618V38.9H238.758V38.07L239.478 37.45ZM244.62 35.26C244.62 34.1067 244.813 33.2067 245.2 32.56C245.593 31.9067 246.266 31.58 247.22 31.58C248.173 31.58 248.843 31.9067 249.23 32.56C249.623 33.2067 249.82 34.1067 249.82 35.26C249.82 36.4267 249.623 37.34 249.23 38C248.843 38.6533 248.173 38.98 247.22 38.98C246.266 38.98 245.593 38.6533 245.2 38C244.813 37.34 244.62 36.4267 244.62 35.26ZM248.7 35.26C248.7 34.72 248.663 34.2633 248.59 33.89C248.523 33.5167 248.383 33.2133 248.17 32.98C247.956 32.74 247.64 32.62 247.22 32.62C246.8 32.62 246.483 32.74 246.27 32.98C246.056 33.2133 245.913 33.5167 245.84 33.89C245.773 34.2633 245.74 34.72 245.74 35.26C245.74 35.82 245.773 36.29 245.84 36.67C245.906 37.05 246.046 37.3567 246.26 37.59C246.48 37.8233 246.8 37.94 247.22 37.94C247.64 37.94 247.956 37.8233 248.17 37.59C248.39 37.3567 248.533 37.05 248.6 36.67C248.666 36.29 248.7 35.82 248.7 35.26ZM251.656 37.45C252.296 36.8967 252.799 36.4433 253.166 36.09C253.539 35.73 253.849 35.3567 254.096 34.97C254.342 34.5833 254.466 34.1967 254.466 33.81C254.466 33.41 254.369 33.0967 254.176 32.87C253.989 32.6433 253.692 32.53 253.286 32.53C252.892 32.53 252.586 32.6567 252.366 32.91C252.152 33.1567 252.039 33.49 252.026 33.91H250.926C250.946 33.15 251.172 32.57 251.606 32.17C252.046 31.7633 252.602 31.56 253.276 31.56C254.002 31.56 254.569 31.76 254.976 32.16C255.389 32.56 255.596 33.0933 255.596 33.76C255.596 34.24 255.472 34.7033 255.226 35.15C254.986 35.59 254.696 35.9867 254.356 36.34C254.022 36.6867 253.596 37.09 253.076 37.55L252.626 37.95H255.796V38.9H250.936V38.07L251.656 37.45ZM256.797 35.26C256.797 34.1067 256.991 33.2067 257.377 32.56C257.771 31.9067 258.444 31.58 259.397 31.58C260.351 31.58 261.021 31.9067 261.407 32.56C261.801 33.2067 261.997 34.1067 261.997 35.26C261.997 36.4267 261.801 37.34 261.407 38C261.021 38.6533 260.351 38.98 259.397 38.98C258.444 38.98 257.771 38.6533 257.377 38C256.991 37.34 256.797 36.4267 256.797 35.26ZM260.877 35.26C260.877 34.72 260.841 34.2633 260.767 33.89C260.701 33.5167 260.561 33.2133 260.347 32.98C260.134 32.74 259.817 32.62 259.397 32.62C258.977 32.62 258.661 32.74 258.447 32.98C258.234 33.2133 258.091 33.5167 258.017 33.89C257.951 34.2633 257.917 34.72 257.917 35.26C257.917 35.82 257.951 36.29 258.017 36.67C258.084 37.05 258.224 37.3567 258.437 37.59C258.657 37.8233 258.977 37.94 259.397 37.94C259.817 37.94 260.134 37.8233 260.347 37.59C260.567 37.3567 260.711 37.05 260.777 36.67C260.844 36.29 260.877 35.82 260.877 35.26Z" fill="#41477A"/>
<path d="M191.296 17.408C191.915 17.408 192.445 17.52 192.888 17.744C193.331 17.968 193.669 18.2907 193.904 18.712C194.139 19.1333 194.256 19.6347 194.256 20.216C194.256 20.792 194.139 21.2907 193.904 21.712C193.669 22.128 193.331 22.448 192.888 22.672C192.445 22.8907 191.915 23 191.296 23H189.64V17.408H191.296ZM191.296 22.536C192.075 22.536 192.667 22.3333 193.072 21.928C193.483 21.5173 193.688 20.9467 193.688 20.216C193.688 19.48 193.483 18.9067 193.072 18.496C192.667 18.08 192.075 17.872 191.296 17.872H190.2V22.536H191.296ZM199.072 18.632V23H198.512V22.232C198.384 22.504 198.187 22.712 197.92 22.856C197.654 23 197.355 23.072 197.024 23.072C196.502 23.072 196.075 22.912 195.744 22.592C195.414 22.2667 195.248 21.7973 195.248 21.184V18.632H195.8V21.12C195.8 21.5947 195.918 21.9573 196.152 22.208C196.392 22.4587 196.718 22.584 197.128 22.584C197.55 22.584 197.886 22.4507 198.136 22.184C198.387 21.9173 198.512 21.5253 198.512 21.008V18.632H199.072ZM204.303 20.592C204.303 20.784 204.298 20.9307 204.287 21.032H200.663C200.679 21.3627 200.759 21.6453 200.903 21.88C201.047 22.1147 201.236 22.2933 201.471 22.416C201.706 22.5333 201.962 22.592 202.239 22.592C202.602 22.592 202.906 22.504 203.151 22.328C203.402 22.152 203.567 21.9147 203.647 21.616H204.239C204.132 22.0427 203.903 22.392 203.551 22.664C203.204 22.9307 202.767 23.064 202.239 23.064C201.828 23.064 201.46 22.9733 201.135 22.792C200.81 22.6053 200.554 22.344 200.367 22.008C200.186 21.6667 200.095 21.2693 200.095 20.816C200.095 20.3627 200.186 19.9653 200.367 19.624C200.548 19.2827 200.802 19.0213 201.127 18.84C201.452 18.6587 201.823 18.568 202.239 18.568C202.655 18.568 203.018 18.6587 203.327 18.84C203.642 19.0213 203.882 19.2667 204.047 19.576C204.218 19.88 204.303 20.2187 204.303 20.592ZM203.735 20.576C203.74 20.2507 203.674 19.9733 203.535 19.744C203.402 19.5147 203.218 19.3413 202.983 19.224C202.748 19.1067 202.492 19.048 202.215 19.048C201.799 19.048 201.444 19.1813 201.151 19.448C200.858 19.7147 200.695 20.0907 200.663 20.576H203.735ZM209.179 17.408C209.797 17.408 210.328 17.52 210.771 17.744C211.213 17.968 211.552 18.2907 211.787 18.712C212.021 19.1333 212.139 19.6347 212.139 20.216C212.139 20.792 212.021 21.2907 211.787 21.712C211.552 22.128 211.213 22.448 210.771 22.672C210.328 22.8907 209.797 23 209.179 23H207.523V17.408H209.179ZM209.179 22.536C209.957 22.536 210.549 22.3333 210.955 21.928C211.365 21.5173 211.571 20.9467 211.571 20.216C211.571 19.48 211.365 18.9067 210.955 18.496C210.549 18.08 209.957 17.872 209.179 17.872H208.083V22.536H209.179ZM212.915 20.808C212.915 20.36 213.003 19.968 213.179 19.632C213.361 19.2907 213.609 19.0293 213.923 18.848C214.243 18.6613 214.603 18.568 215.003 18.568C215.419 18.568 215.777 18.664 216.075 18.856C216.379 19.048 216.598 19.2933 216.731 19.592V18.632H217.291V23H216.731V22.032C216.593 22.3307 216.371 22.5787 216.067 22.776C215.769 22.968 215.411 23.064 214.995 23.064C214.601 23.064 214.243 22.9707 213.923 22.784C213.609 22.5973 213.361 22.3333 213.179 21.992C213.003 21.6507 212.915 21.256 212.915 20.808ZM216.731 20.816C216.731 20.464 216.659 20.1547 216.515 19.888C216.371 19.6213 216.174 19.416 215.923 19.272C215.678 19.128 215.406 19.056 215.107 19.056C214.798 19.056 214.521 19.1253 214.275 19.264C214.03 19.4027 213.835 19.6053 213.691 19.872C213.553 20.1333 213.483 20.4453 213.483 20.808C213.483 21.1653 213.553 21.48 213.691 21.752C213.835 22.0187 214.03 22.224 214.275 22.368C214.521 22.5067 214.798 22.576 215.107 22.576C215.406 22.576 215.678 22.504 215.923 22.36C216.174 22.216 216.371 22.0107 216.515 21.744C216.659 21.4773 216.731 21.168 216.731 20.816ZM219.298 19.104V21.816C219.298 22.0827 219.348 22.2667 219.45 22.368C219.551 22.4693 219.73 22.52 219.986 22.52H220.498V23H219.898C219.503 23 219.21 22.9093 219.018 22.728C218.826 22.5413 218.73 22.2373 218.73 21.816V19.104H218.122V18.632H218.73V17.536H219.298V18.632H220.498V19.104H219.298ZM225.373 20.592C225.373 20.784 225.368 20.9307 225.357 21.032H221.733C221.749 21.3627 221.829 21.6453 221.973 21.88C222.117 22.1147 222.307 22.2933 222.541 22.416C222.776 22.5333 223.032 22.592 223.309 22.592C223.672 22.592 223.976 22.504 224.221 22.328C224.472 22.152 224.637 21.9147 224.717 21.616H225.309C225.203 22.0427 224.973 22.392 224.621 22.664C224.275 22.9307 223.837 23.064 223.309 23.064C222.899 23.064 222.531 22.9733 222.205 22.792C221.88 22.6053 221.624 22.344 221.437 22.008C221.256 21.6667 221.165 21.2693 221.165 20.816C221.165 20.3627 221.256 19.9653 221.437 19.624C221.619 19.2827 221.872 19.0213 222.197 18.84C222.523 18.6587 222.893 18.568 223.309 18.568C223.725 18.568 224.088 18.6587 224.397 18.84C224.712 19.0213 224.952 19.2667 225.117 19.576C225.288 19.88 225.373 20.2187 225.373 20.592ZM224.805 20.576C224.811 20.2507 224.744 19.9733 224.605 19.744C224.472 19.5147 224.288 19.3413 224.053 19.224C223.819 19.1067 223.563 19.048 223.285 19.048C222.869 19.048 222.515 19.1813 222.221 19.448C221.928 19.7147 221.765 20.0907 221.733 20.576H224.805Z" fill="#6F7399"/>
<line x1="1" y1="0.75" x2="269" y2="0.75" stroke="#D5D6DA" stroke-width="0.5"/>
<line x1="1" y1="70.75" x2="269" y2="70.75" stroke="#D5D6DA" stroke-width="0.5"/>
</svg>
